<?xml version="1.0" encoding="utf-8" standalone="no"?>
<!DOCTYPE svg PUBLIC "-//W3C//DTD SVG 1.1//EN"
  "http://www.w3.org/Graphics/SVG/1.1/DTD/svg11.dtd">
<!-- Created with matplotlib (https://matplotlib.org/) -->
<svg height="288pt" version="1.1" viewBox="0 0 1080 288" width="1080pt" xmlns="http://www.w3.org/2000/svg" xmlns:xlink="http://www.w3.org/1999/xlink">
 <metadata>
  <rdf:RDF xmlns:cc="http://creativecommons.org/ns#" xmlns:dc="http://purl.org/dc/elements/1.1/" xmlns:rdf="http://www.w3.org/1999/02/22-rdf-syntax-ns#">
   <cc:Work>
    <dc:type rdf:resource="http://purl.org/dc/dcmitype/StillImage"/>
    <dc:date>2021-06-14T18:55:10.281504</dc:date>
    <dc:format>image/svg+xml</dc:format>
    <dc:creator>
     <cc:Agent>
      <dc:title>Matplotlib v3.3.4, https://matplotlib.org/</dc:title>
     </cc:Agent>
    </dc:creator>
   </cc:Work>
  </rdf:RDF>
 </metadata>
 <defs>
  <style type="text/css">*{stroke-linecap:butt;stroke-linejoin:round;}</style>
 </defs>
 <g id="figure_1">
  <g id="patch_1">
   <path d="M 0 288 
L 1080 288 
L 1080 0 
L 0 0 
z
" style="fill:#ffffff;"/>
  </g>
  <g id="axes_1">
   <g id="patch_2">
    <path d="M 135 256.32 
L 381.176471 256.32 
L 381.176471 34.56 
L 135 34.56 
z
" style="fill:#ffffff;"/>
   </g>
   <g id="PathCollection_1">
    <defs>
     <path d="M 0 3 
C 0.795609 3 1.55874 2.683901 2.12132 2.12132 
C 2.683901 1.55874 3 0.795609 3 0 
C 3 -0.795609 2.683901 -1.55874 2.12132 -2.12132 
C 1.55874 -2.683901 0.795609 -3 0 -3 
C -0.795609 -3 -1.55874 -2.683901 -2.12132 -2.12132 
C -2.683901 -1.55874 -3 -0.795609 -3 0 
C -3 0.795609 -2.683901 1.55874 -2.12132 2.12132 
C -1.55874 2.683901 -0.795609 3 0 3 
z
" id="mdc2163bfd9" style="stroke:#1f77b4;"/>
    </defs>
    <g clip-path="url(#p5b12290e67)">
     <use style="fill:#1f77b4;stroke:#1f77b4;" x="146.18984" xlink:href="#mdc2163bfd9" y="237.722266"/>
     <use style="fill:#1f77b4;stroke:#1f77b4;" x="171.05615" xlink:href="#mdc2163bfd9" y="235.101412"/>
     <use style="fill:#1f77b4;stroke:#1f77b4;" x="195.92246" xlink:href="#mdc2163bfd9" y="216.253907"/>
     <use style="fill:#1f77b4;stroke:#1f77b4;" x="220.78877" xlink:href="#mdc2163bfd9" y="189.404527"/>
     <use style="fill:#1f77b4;stroke:#1f77b4;" x="245.65508" xlink:href="#mdc2163bfd9" y="163.441281"/>
     <use style="fill:#1f77b4;stroke:#1f77b4;" x="270.52139" xlink:href="#mdc2163bfd9" y="138.318682"/>
     <use style="fill:#1f77b4;stroke:#1f77b4;" x="320.254011" xlink:href="#mdc2163bfd9" y="89.47536"/>
     <use style="fill:#1f77b4;stroke:#1f77b4;" x="369.986631" xlink:href="#mdc2163bfd9" y="44.64"/>
    </g>
   </g>
   <g id="PathCollection_2">
    <defs>
     <path d="M 0 3 
C 0.795609 3 1.55874 2.683901 2.12132 2.12132 
C 2.683901 1.55874 3 0.795609 3 0 
C 3 -0.795609 2.683901 -1.55874 2.12132 -2.12132 
C 1.55874 -2.683901 0.795609 -3 0 -3 
C -0.795609 -3 -1.55874 -2.683901 -2.12132 -2.12132 
C -2.683901 -1.55874 -3 -0.795609 -3 0 
C -3 0.795609 -2.683901 1.55874 -2.12132 2.12132 
C -1.55874 2.683901 -0.795609 3 0 3 
z
" id="m58287cf920" style="stroke:#ff7f0e;"/>
    </defs>
    <g clip-path="url(#p5b12290e67)">
     <use style="fill:#ff7f0e;stroke:#ff7f0e;" x="146.18984" xlink:href="#m58287cf920" y="234.313513"/>
     <use style="fill:#ff7f0e;stroke:#ff7f0e;" x="171.05615" xlink:href="#m58287cf920" y="246.24"/>
     <use style="fill:#ff7f0e;stroke:#ff7f0e;" x="195.92246" xlink:href="#m58287cf920" y="240.931732"/>
     <use style="fill:#ff7f0e;stroke:#ff7f0e;" x="220.78877" xlink:href="#m58287cf920" y="226.156686"/>
     <use style="fill:#ff7f0e;stroke:#ff7f0e;" x="245.65508" xlink:href="#m58287cf920" y="216.841845"/>
     <use style="fill:#ff7f0e;stroke:#ff7f0e;" x="270.52139" xlink:href="#m58287cf920" y="211.615419"/>
     <use style="fill:#ff7f0e;stroke:#ff7f0e;" x="320.254011" xlink:href="#m58287cf920" y="202.498078"/>
     <use style="fill:#ff7f0e;stroke:#ff7f0e;" x="369.986631" xlink:href="#m58287cf920" y="193.220387"/>
    </g>
   </g>
   <g id="PathCollection_3">
    <defs>
     <path d="M 0 3 
C 0.795609 3 1.55874 2.683901 2.12132 2.12132 
C 2.683901 1.55874 3 0.795609 3 0 
C 3 -0.795609 2.683901 -1.55874 2.12132 -2.12132 
C 1.55874 -2.683901 0.795609 -3 0 -3 
C -0.795609 -3 -1.55874 -2.683901 -2.12132 -2.12132 
C -2.683901 -1.55874 -3 -0.795609 -3 0 
C -3 0.795609 -2.683901 1.55874 -2.12132 2.12132 
C -1.55874 2.683901 -0.795609 3 0 3 
z
" id="m864a139d48" style="stroke:#2ca02c;"/>
    </defs>
    <g clip-path="url(#p5b12290e67)">
     <use style="fill:#2ca02c;stroke:#2ca02c;" x="146.18984" xlink:href="#m864a139d48" y="238.863293"/>
     <use style="fill:#2ca02c;stroke:#2ca02c;" x="171.05615" xlink:href="#m864a139d48" y="231.001804"/>
     <use style="fill:#2ca02c;stroke:#2ca02c;" x="195.92246" xlink:href="#m864a139d48" y="214.345938"/>
     <use style="fill:#2ca02c;stroke:#2ca02c;" x="220.78877" xlink:href="#m864a139d48" y="197.772111"/>
     <use style="fill:#2ca02c;stroke:#2ca02c;" x="245.65508" xlink:href="#m864a139d48" y="187.500169"/>
     <use style="fill:#2ca02c;stroke:#2ca02c;" x="270.52139" xlink:href="#m864a139d48" y="180.758711"/>
     <use style="fill:#2ca02c;stroke:#2ca02c;" x="320.254011" xlink:href="#m864a139d48" y="168.336726"/>
     <use style="fill:#2ca02c;stroke:#2ca02c;" x="369.986631" xlink:href="#m864a139d48" y="155.202691"/>
    </g>
   </g>
   <g id="matplotlib.axis_1">
    <g id="xtick_1">
     <g id="line2d_1">
      <defs>
       <path d="M 0 0 
L 0 3.5 
" id="md69b674eda" style="stroke:#000000;stroke-width:0.8;"/>
      </defs>
      <g>
       <use style="stroke:#000000;stroke-width:0.8;" x="146.18984" xlink:href="#md69b674eda" y="256.32"/>
      </g>
     </g>
     <g id="text_1">
      <!-- $\mathdefault{2^{0}}$ -->
      <g transform="translate(140.58984 270.918437)scale(0.1 -0.1)">
       <defs>
        <path d="M 19.1875 8.296875 
L 53.609375 8.296875 
L 53.609375 0 
L 7.328125 0 
L 7.328125 8.296875 
Q 12.9375 14.109375 22.625 23.890625 
Q 32.328125 33.6875 34.8125 36.53125 
Q 39.546875 41.84375 41.421875 45.53125 
Q 43.3125 49.21875 43.3125 52.78125 
Q 43.3125 58.59375 39.234375 62.25 
Q 35.15625 65.921875 28.609375 65.921875 
Q 23.96875 65.921875 18.8125 64.3125 
Q 13.671875 62.703125 7.8125 59.421875 
L 7.8125 69.390625 
Q 13.765625 71.78125 18.9375 73 
Q 24.125 74.21875 28.421875 74.21875 
Q 39.75 74.21875 46.484375 68.546875 
Q 53.21875 62.890625 53.21875 53.421875 
Q 53.21875 48.921875 51.53125 44.890625 
Q 49.859375 40.875 45.40625 35.40625 
Q 44.1875 33.984375 37.640625 27.21875 
Q 31.109375 20.453125 19.1875 8.296875 
z
" id="DejaVuSans-50"/>
        <path d="M 31.78125 66.40625 
Q 24.171875 66.40625 20.328125 58.90625 
Q 16.5 51.421875 16.5 36.375 
Q 16.5 21.390625 20.328125 13.890625 
Q 24.171875 6.390625 31.78125 6.390625 
Q 39.453125 6.390625 43.28125 13.890625 
Q 47.125 21.390625 47.125 36.375 
Q 47.125 51.421875 43.28125 58.90625 
Q 39.453125 66.40625 31.78125 66.40625 
z
M 31.78125 74.21875 
Q 44.046875 74.21875 50.515625 64.515625 
Q 56.984375 54.828125 56.984375 36.375 
Q 56.984375 17.96875 50.515625 8.265625 
Q 44.046875 -1.421875 31.78125 -1.421875 
Q 19.53125 -1.421875 13.0625 8.265625 
Q 6.59375 17.96875 6.59375 36.375 
Q 6.59375 54.828125 13.0625 64.515625 
Q 19.53125 74.21875 31.78125 74.21875 
z
" id="DejaVuSans-48"/>
       </defs>
       <use transform="translate(0 0.765625)" xlink:href="#DejaVuSans-50"/>
       <use transform="translate(64.580078 39.046875)scale(0.7)" xlink:href="#DejaVuSans-48"/>
      </g>
     </g>
    </g>
    <g id="xtick_2">
     <g id="line2d_2">
      <g>
       <use style="stroke:#000000;stroke-width:0.8;" x="171.05615" xlink:href="#md69b674eda" y="256.32"/>
      </g>
     </g>
     <g id="text_2">
      <!-- $\mathdefault{2^{2}}$ -->
      <g transform="translate(165.45615 270.918437)scale(0.1 -0.1)">
       <use transform="translate(0 0.765625)" xlink:href="#DejaVuSans-50"/>
       <use transform="translate(64.580078 39.046875)scale(0.7)" xlink:href="#DejaVuSans-50"/>
      </g>
     </g>
    </g>
    <g id="xtick_3">
     <g id="line2d_3">
      <g>
       <use style="stroke:#000000;stroke-width:0.8;" x="195.92246" xlink:href="#md69b674eda" y="256.32"/>
      </g>
     </g>
     <g id="text_3">
      <!-- $\mathdefault{2^{4}}$ -->
      <g transform="translate(190.32246 270.918437)scale(0.1 -0.1)">
       <defs>
        <path d="M 37.796875 64.3125 
L 12.890625 25.390625 
L 37.796875 25.390625 
z
M 35.203125 72.90625 
L 47.609375 72.90625 
L 47.609375 25.390625 
L 58.015625 25.390625 
L 58.015625 17.1875 
L 47.609375 17.1875 
L 47.609375 0 
L 37.796875 0 
L 37.796875 17.1875 
L 4.890625 17.1875 
L 4.890625 26.703125 
z
" id="DejaVuSans-52"/>
       </defs>
       <use transform="translate(0 0.684375)" xlink:href="#DejaVuSans-50"/>
       <use transform="translate(64.580078 38.965625)scale(0.7)" xlink:href="#DejaVuSans-52"/>
      </g>
     </g>
    </g>
    <g id="xtick_4">
     <g id="line2d_4">
      <g>
       <use style="stroke:#000000;stroke-width:0.8;" x="220.78877" xlink:href="#md69b674eda" y="256.32"/>
      </g>
     </g>
     <g id="text_4">
      <!-- $\mathdefault{2^{6}}$ -->
      <g transform="translate(215.18877 270.918437)scale(0.1 -0.1)">
       <defs>
        <path d="M 33.015625 40.375 
Q 26.375 40.375 22.484375 35.828125 
Q 18.609375 31.296875 18.609375 23.390625 
Q 18.609375 15.53125 22.484375 10.953125 
Q 26.375 6.390625 33.015625 6.390625 
Q 39.65625 6.390625 43.53125 10.953125 
Q 47.40625 15.53125 47.40625 23.390625 
Q 47.40625 31.296875 43.53125 35.828125 
Q 39.65625 40.375 33.015625 40.375 
z
M 52.59375 71.296875 
L 52.59375 62.3125 
Q 48.875 64.0625 45.09375 64.984375 
Q 41.3125 65.921875 37.59375 65.921875 
Q 27.828125 65.921875 22.671875 59.328125 
Q 17.53125 52.734375 16.796875 39.40625 
Q 19.671875 43.65625 24.015625 45.921875 
Q 28.375 48.1875 33.59375 48.1875 
Q 44.578125 48.1875 50.953125 41.515625 
Q 57.328125 34.859375 57.328125 23.390625 
Q 57.328125 12.15625 50.6875 5.359375 
Q 44.046875 -1.421875 33.015625 -1.421875 
Q 20.359375 -1.421875 13.671875 8.265625 
Q 6.984375 17.96875 6.984375 36.375 
Q 6.984375 53.65625 15.1875 63.9375 
Q 23.390625 74.21875 37.203125 74.21875 
Q 40.921875 74.21875 44.703125 73.484375 
Q 48.484375 72.75 52.59375 71.296875 
z
" id="DejaVuSans-54"/>
       </defs>
       <use transform="translate(0 0.765625)" xlink:href="#DejaVuSans-50"/>
       <use transform="translate(64.580078 39.046875)scale(0.7)" xlink:href="#DejaVuSans-54"/>
      </g>
     </g>
    </g>
    <g id="xtick_5">
     <g id="line2d_5">
      <g>
       <use style="stroke:#000000;stroke-width:0.8;" x="245.65508" xlink:href="#md69b674eda" y="256.32"/>
      </g>
     </g>
     <g id="text_5">
      <!-- $\mathdefault{2^{8}}$ -->
      <g transform="translate(240.05508 270.918437)scale(0.1 -0.1)">
       <defs>
        <path d="M 31.78125 34.625 
Q 24.75 34.625 20.71875 30.859375 
Q 16.703125 27.09375 16.703125 20.515625 
Q 16.703125 13.921875 20.71875 10.15625 
Q 24.75 6.390625 31.78125 6.390625 
Q 38.8125 6.390625 42.859375 10.171875 
Q 46.921875 13.96875 46.921875 20.515625 
Q 46.921875 27.09375 42.890625 30.859375 
Q 38.875 34.625 31.78125 34.625 
z
M 21.921875 38.8125 
Q 15.578125 40.375 12.03125 44.71875 
Q 8.5 49.078125 8.5 55.328125 
Q 8.5 64.0625 14.71875 69.140625 
Q 20.953125 74.21875 31.78125 74.21875 
Q 42.671875 74.21875 48.875 69.140625 
Q 55.078125 64.0625 55.078125 55.328125 
Q 55.078125 49.078125 51.53125 44.71875 
Q 48 40.375 41.703125 38.8125 
Q 48.828125 37.15625 52.796875 32.3125 
Q 56.78125 27.484375 56.78125 20.515625 
Q 56.78125 9.90625 50.3125 4.234375 
Q 43.84375 -1.421875 31.78125 -1.421875 
Q 19.734375 -1.421875 13.25 4.234375 
Q 6.78125 9.90625 6.78125 20.515625 
Q 6.78125 27.484375 10.78125 32.3125 
Q 14.796875 37.15625 21.921875 38.8125 
z
M 18.3125 54.390625 
Q 18.3125 48.734375 21.84375 45.5625 
Q 25.390625 42.390625 31.78125 42.390625 
Q 38.140625 42.390625 41.71875 45.5625 
Q 45.3125 48.734375 45.3125 54.390625 
Q 45.3125 60.0625 41.71875 63.234375 
Q 38.140625 66.40625 31.78125 66.40625 
Q 25.390625 66.40625 21.84375 63.234375 
Q 18.3125 60.0625 18.3125 54.390625 
z
" id="DejaVuSans-56"/>
       </defs>
       <use transform="translate(0 0.765625)" xlink:href="#DejaVuSans-50"/>
       <use transform="translate(64.580078 39.046875)scale(0.7)" xlink:href="#DejaVuSans-56"/>
      </g>
     </g>
    </g>
    <g id="xtick_6">
     <g id="line2d_6">
      <g>
       <use style="stroke:#000000;stroke-width:0.8;" x="270.52139" xlink:href="#md69b674eda" y="256.32"/>
      </g>
     </g>
     <g id="text_6">
      <!-- $\mathdefault{2^{10}}$ -->
      <g transform="translate(262.67139 270.918437)scale(0.1 -0.1)">
       <defs>
        <path d="M 12.40625 8.296875 
L 28.515625 8.296875 
L 28.515625 63.921875 
L 10.984375 60.40625 
L 10.984375 69.390625 
L 28.421875 72.90625 
L 38.28125 72.90625 
L 38.28125 8.296875 
L 54.390625 8.296875 
L 54.390625 0 
L 12.40625 0 
z
" id="DejaVuSans-49"/>
       </defs>
       <use transform="translate(0 0.765625)" xlink:href="#DejaVuSans-50"/>
       <use transform="translate(64.580078 39.046875)scale(0.7)" xlink:href="#DejaVuSans-49"/>
       <use transform="translate(109.116211 39.046875)scale(0.7)" xlink:href="#DejaVuSans-48"/>
      </g>
     </g>
    </g>
    <g id="xtick_7">
     <g id="line2d_7">
      <g>
       <use style="stroke:#000000;stroke-width:0.8;" x="320.254011" xlink:href="#md69b674eda" y="256.32"/>
      </g>
     </g>
     <g id="text_7">
      <!-- $\mathdefault{2^{14}}$ -->
      <g transform="translate(312.404011 270.918437)scale(0.1 -0.1)">
       <use transform="translate(0 0.684375)" xlink:href="#DejaVuSans-50"/>
       <use transform="translate(64.580078 38.965625)scale(0.7)" xlink:href="#DejaVuSans-49"/>
       <use transform="translate(109.116211 38.965625)scale(0.7)" xlink:href="#DejaVuSans-52"/>
      </g>
     </g>
    </g>
    <g id="xtick_8">
     <g id="line2d_8">
      <g>
       <use style="stroke:#000000;stroke-width:0.8;" x="369.986631" xlink:href="#md69b674eda" y="256.32"/>
      </g>
     </g>
     <g id="text_8">
      <!-- $\mathdefault{2^{18}}$ -->
      <g transform="translate(362.136631 270.918437)scale(0.1 -0.1)">
       <use transform="translate(0 0.765625)" xlink:href="#DejaVuSans-50"/>
       <use transform="translate(64.580078 39.046875)scale(0.7)" xlink:href="#DejaVuSans-49"/>
       <use transform="translate(109.116211 39.046875)scale(0.7)" xlink:href="#DejaVuSans-56"/>
      </g>
     </g>
    </g>
    <g id="text_9">
     <!-- Number of elements -->
     <g transform="translate(206.781985 284.596563)scale(0.1 -0.1)">
      <defs>
       <path d="M 9.8125 72.90625 
L 23.09375 72.90625 
L 55.421875 11.921875 
L 55.421875 72.90625 
L 64.984375 72.90625 
L 64.984375 0 
L 51.703125 0 
L 19.390625 60.984375 
L 19.390625 0 
L 9.8125 0 
z
" id="DejaVuSans-78"/>
       <path d="M 8.5 21.578125 
L 8.5 54.6875 
L 17.484375 54.6875 
L 17.484375 21.921875 
Q 17.484375 14.15625 20.5 10.265625 
Q 23.53125 6.390625 29.59375 6.390625 
Q 36.859375 6.390625 41.078125 11.03125 
Q 45.3125 15.671875 45.3125 23.6875 
L 45.3125 54.6875 
L 54.296875 54.6875 
L 54.296875 0 
L 45.3125 0 
L 45.3125 8.40625 
Q 42.046875 3.421875 37.71875 1 
Q 33.40625 -1.421875 27.6875 -1.421875 
Q 18.265625 -1.421875 13.375 4.4375 
Q 8.5 10.296875 8.5 21.578125 
z
M 31.109375 56 
z
" id="DejaVuSans-117"/>
       <path d="M 52 44.1875 
Q 55.375 50.25 60.0625 53.125 
Q 64.75 56 71.09375 56 
Q 79.640625 56 84.28125 50.015625 
Q 88.921875 44.046875 88.921875 33.015625 
L 88.921875 0 
L 79.890625 0 
L 79.890625 32.71875 
Q 79.890625 40.578125 77.09375 44.375 
Q 74.3125 48.1875 68.609375 48.1875 
Q 61.625 48.1875 57.5625 43.546875 
Q 53.515625 38.921875 53.515625 30.90625 
L 53.515625 0 
L 44.484375 0 
L 44.484375 32.71875 
Q 44.484375 40.625 41.703125 44.40625 
Q 38.921875 48.1875 33.109375 48.1875 
Q 26.21875 48.1875 22.15625 43.53125 
Q 18.109375 38.875 18.109375 30.90625 
L 18.109375 0 
L 9.078125 0 
L 9.078125 54.6875 
L 18.109375 54.6875 
L 18.109375 46.1875 
Q 21.1875 51.21875 25.484375 53.609375 
Q 29.78125 56 35.6875 56 
Q 41.65625 56 45.828125 52.96875 
Q 50 49.953125 52 44.1875 
z
" id="DejaVuSans-109"/>
       <path d="M 48.6875 27.296875 
Q 48.6875 37.203125 44.609375 42.84375 
Q 40.53125 48.484375 33.40625 48.484375 
Q 26.265625 48.484375 22.1875 42.84375 
Q 18.109375 37.203125 18.109375 27.296875 
Q 18.109375 17.390625 22.1875 11.75 
Q 26.265625 6.109375 33.40625 6.109375 
Q 40.53125 6.109375 44.609375 11.75 
Q 48.6875 17.390625 48.6875 27.296875 
z
M 18.109375 46.390625 
Q 20.953125 51.265625 25.265625 53.625 
Q 29.59375 56 35.59375 56 
Q 45.5625 56 51.78125 48.09375 
Q 58.015625 40.1875 58.015625 27.296875 
Q 58.015625 14.40625 51.78125 6.484375 
Q 45.5625 -1.421875 35.59375 -1.421875 
Q 29.59375 -1.421875 25.265625 0.953125 
Q 20.953125 3.328125 18.109375 8.203125 
L 18.109375 0 
L 9.078125 0 
L 9.078125 75.984375 
L 18.109375 75.984375 
z
" id="DejaVuSans-98"/>
       <path d="M 56.203125 29.59375 
L 56.203125 25.203125 
L 14.890625 25.203125 
Q 15.484375 15.921875 20.484375 11.0625 
Q 25.484375 6.203125 34.421875 6.203125 
Q 39.59375 6.203125 44.453125 7.46875 
Q 49.3125 8.734375 54.109375 11.28125 
L 54.109375 2.78125 
Q 49.265625 0.734375 44.1875 -0.34375 
Q 39.109375 -1.421875 33.890625 -1.421875 
Q 20.796875 -1.421875 13.15625 6.1875 
Q 5.515625 13.8125 5.515625 26.8125 
Q 5.515625 40.234375 12.765625 48.109375 
Q 20.015625 56 32.328125 56 
Q 43.359375 56 49.78125 48.890625 
Q 56.203125 41.796875 56.203125 29.59375 
z
M 47.21875 32.234375 
Q 47.125 39.59375 43.09375 43.984375 
Q 39.0625 48.390625 32.421875 48.390625 
Q 24.90625 48.390625 20.390625 44.140625 
Q 15.875 39.890625 15.1875 32.171875 
z
" id="DejaVuSans-101"/>
       <path d="M 41.109375 46.296875 
Q 39.59375 47.171875 37.8125 47.578125 
Q 36.03125 48 33.890625 48 
Q 26.265625 48 22.1875 43.046875 
Q 18.109375 38.09375 18.109375 28.8125 
L 18.109375 0 
L 9.078125 0 
L 9.078125 54.6875 
L 18.109375 54.6875 
L 18.109375 46.1875 
Q 20.953125 51.171875 25.484375 53.578125 
Q 30.03125 56 36.53125 56 
Q 37.453125 56 38.578125 55.875 
Q 39.703125 55.765625 41.0625 55.515625 
z
" id="DejaVuSans-114"/>
       <path id="DejaVuSans-32"/>
       <path d="M 30.609375 48.390625 
Q 23.390625 48.390625 19.1875 42.75 
Q 14.984375 37.109375 14.984375 27.296875 
Q 14.984375 17.484375 19.15625 11.84375 
Q 23.34375 6.203125 30.609375 6.203125 
Q 37.796875 6.203125 41.984375 11.859375 
Q 46.1875 17.53125 46.1875 27.296875 
Q 46.1875 37.015625 41.984375 42.703125 
Q 37.796875 48.390625 30.609375 48.390625 
z
M 30.609375 56 
Q 42.328125 56 49.015625 48.375 
Q 55.71875 40.765625 55.71875 27.296875 
Q 55.71875 13.875 49.015625 6.21875 
Q 42.328125 -1.421875 30.609375 -1.421875 
Q 18.84375 -1.421875 12.171875 6.21875 
Q 5.515625 13.875 5.515625 27.296875 
Q 5.515625 40.765625 12.171875 48.375 
Q 18.84375 56 30.609375 56 
z
" id="DejaVuSans-111"/>
       <path d="M 37.109375 75.984375 
L 37.109375 68.5 
L 28.515625 68.5 
Q 23.6875 68.5 21.796875 66.546875 
Q 19.921875 64.59375 19.921875 59.515625 
L 19.921875 54.6875 
L 34.71875 54.6875 
L 34.71875 47.703125 
L 19.921875 47.703125 
L 19.921875 0 
L 10.890625 0 
L 10.890625 47.703125 
L 2.296875 47.703125 
L 2.296875 54.6875 
L 10.890625 54.6875 
L 10.890625 58.5 
Q 10.890625 67.625 15.140625 71.796875 
Q 19.390625 75.984375 28.609375 75.984375 
z
" id="DejaVuSans-102"/>
       <path d="M 9.421875 75.984375 
L 18.40625 75.984375 
L 18.40625 0 
L 9.421875 0 
z
" id="DejaVuSans-108"/>
       <path d="M 54.890625 33.015625 
L 54.890625 0 
L 45.90625 0 
L 45.90625 32.71875 
Q 45.90625 40.484375 42.875 44.328125 
Q 39.84375 48.1875 33.796875 48.1875 
Q 26.515625 48.1875 22.3125 43.546875 
Q 18.109375 38.921875 18.109375 30.90625 
L 18.109375 0 
L 9.078125 0 
L 9.078125 54.6875 
L 18.109375 54.6875 
L 18.109375 46.1875 
Q 21.34375 51.125 25.703125 53.5625 
Q 30.078125 56 35.796875 56 
Q 45.21875 56 50.046875 50.171875 
Q 54.890625 44.34375 54.890625 33.015625 
z
" id="DejaVuSans-110"/>
       <path d="M 18.3125 70.21875 
L 18.3125 54.6875 
L 36.8125 54.6875 
L 36.8125 47.703125 
L 18.3125 47.703125 
L 18.3125 18.015625 
Q 18.3125 11.328125 20.140625 9.421875 
Q 21.96875 7.515625 27.59375 7.515625 
L 36.8125 7.515625 
L 36.8125 0 
L 27.59375 0 
Q 17.1875 0 13.234375 3.875 
Q 9.28125 7.765625 9.28125 18.015625 
L 9.28125 47.703125 
L 2.6875 47.703125 
L 2.6875 54.6875 
L 9.28125 54.6875 
L 9.28125 70.21875 
z
" id="DejaVuSans-116"/>
       <path d="M 44.28125 53.078125 
L 44.28125 44.578125 
Q 40.484375 46.53125 36.375 47.5 
Q 32.28125 48.484375 27.875 48.484375 
Q 21.1875 48.484375 17.84375 46.4375 
Q 14.5 44.390625 14.5 40.28125 
Q 14.5 37.15625 16.890625 35.375 
Q 19.28125 33.59375 26.515625 31.984375 
L 29.59375 31.296875 
Q 39.15625 29.25 43.1875 25.515625 
Q 47.21875 21.78125 47.21875 15.09375 
Q 47.21875 7.46875 41.1875 3.015625 
Q 35.15625 -1.421875 24.609375 -1.421875 
Q 20.21875 -1.421875 15.453125 -0.5625 
Q 10.6875 0.296875 5.421875 2 
L 5.421875 11.28125 
Q 10.40625 8.6875 15.234375 7.390625 
Q 20.0625 6.109375 24.8125 6.109375 
Q 31.15625 6.109375 34.5625 8.28125 
Q 37.984375 10.453125 37.984375 14.40625 
Q 37.984375 18.0625 35.515625 20.015625 
Q 33.0625 21.96875 24.703125 23.78125 
L 21.578125 24.515625 
Q 13.234375 26.265625 9.515625 29.90625 
Q 5.8125 33.546875 5.8125 39.890625 
Q 5.8125 47.609375 11.28125 51.796875 
Q 16.75 56 26.8125 56 
Q 31.78125 56 36.171875 55.265625 
Q 40.578125 54.546875 44.28125 53.078125 
z
" id="DejaVuSans-115"/>
      </defs>
      <use xlink:href="#DejaVuSans-78"/>
      <use x="74.804688" xlink:href="#DejaVuSans-117"/>
      <use x="138.183594" xlink:href="#DejaVuSans-109"/>
      <use x="235.595703" xlink:href="#DejaVuSans-98"/>
      <use x="299.072266" xlink:href="#DejaVuSans-101"/>
      <use x="360.595703" xlink:href="#DejaVuSans-114"/>
      <use x="401.708984" xlink:href="#DejaVuSans-32"/>
      <use x="433.496094" xlink:href="#DejaVuSans-111"/>
      <use x="494.677734" xlink:href="#DejaVuSans-102"/>
      <use x="529.882812" xlink:href="#DejaVuSans-32"/>
      <use x="561.669922" xlink:href="#DejaVuSans-101"/>
      <use x="623.193359" xlink:href="#DejaVuSans-108"/>
      <use x="650.976562" xlink:href="#DejaVuSans-101"/>
      <use x="712.5" xlink:href="#DejaVuSans-109"/>
      <use x="809.912109" xlink:href="#DejaVuSans-101"/>
      <use x="871.435547" xlink:href="#DejaVuSans-110"/>
      <use x="934.814453" xlink:href="#DejaVuSans-116"/>
      <use x="974.023438" xlink:href="#DejaVuSans-115"/>
     </g>
    </g>
   </g>
   <g id="matplotlib.axis_2">
    <g id="ytick_1">
     <g id="line2d_9">
      <defs>
       <path d="M 0 0 
L -3.5 0 
" id="m2b18252a80" style="stroke:#000000;stroke-width:0.8;"/>
      </defs>
      <g>
       <use style="stroke:#000000;stroke-width:0.8;" x="135" xlink:href="#m2b18252a80" y="252.491239"/>
      </g>
     </g>
     <g id="text_10">
      <!-- 0 -->
      <g transform="translate(121.6375 256.290458)scale(0.1 -0.1)">
       <use xlink:href="#DejaVuSans-48"/>
      </g>
     </g>
    </g>
    <g id="ytick_2">
     <g id="line2d_10">
      <g>
       <use style="stroke:#000000;stroke-width:0.8;" x="135" xlink:href="#m2b18252a80" y="212.800582"/>
      </g>
     </g>
     <g id="text_11">
      <!-- 10 -->
      <g transform="translate(115.275 216.599801)scale(0.1 -0.1)">
       <use xlink:href="#DejaVuSans-49"/>
       <use x="63.623047" xlink:href="#DejaVuSans-48"/>
      </g>
     </g>
    </g>
    <g id="ytick_3">
     <g id="line2d_11">
      <g>
       <use style="stroke:#000000;stroke-width:0.8;" x="135" xlink:href="#m2b18252a80" y="173.109925"/>
      </g>
     </g>
     <g id="text_12">
      <!-- 20 -->
      <g transform="translate(115.275 176.909144)scale(0.1 -0.1)">
       <use xlink:href="#DejaVuSans-50"/>
       <use x="63.623047" xlink:href="#DejaVuSans-48"/>
      </g>
     </g>
    </g>
    <g id="ytick_4">
     <g id="line2d_12">
      <g>
       <use style="stroke:#000000;stroke-width:0.8;" x="135" xlink:href="#m2b18252a80" y="133.419268"/>
      </g>
     </g>
     <g id="text_13">
      <!-- 30 -->
      <g transform="translate(115.275 137.218487)scale(0.1 -0.1)">
       <defs>
        <path d="M 40.578125 39.3125 
Q 47.65625 37.796875 51.625 33 
Q 55.609375 28.21875 55.609375 21.1875 
Q 55.609375 10.40625 48.1875 4.484375 
Q 40.765625 -1.421875 27.09375 -1.421875 
Q 22.515625 -1.421875 17.65625 -0.515625 
Q 12.796875 0.390625 7.625 2.203125 
L 7.625 11.71875 
Q 11.71875 9.328125 16.59375 8.109375 
Q 21.484375 6.890625 26.8125 6.890625 
Q 36.078125 6.890625 40.9375 10.546875 
Q 45.796875 14.203125 45.796875 21.1875 
Q 45.796875 27.640625 41.28125 31.265625 
Q 36.765625 34.90625 28.71875 34.90625 
L 20.21875 34.90625 
L 20.21875 43.015625 
L 29.109375 43.015625 
Q 36.375 43.015625 40.234375 45.921875 
Q 44.09375 48.828125 44.09375 54.296875 
Q 44.09375 59.90625 40.109375 62.90625 
Q 36.140625 65.921875 28.71875 65.921875 
Q 24.65625 65.921875 20.015625 65.03125 
Q 15.375 64.15625 9.8125 62.3125 
L 9.8125 71.09375 
Q 15.4375 72.65625 20.34375 73.4375 
Q 25.25 74.21875 29.59375 74.21875 
Q 40.828125 74.21875 47.359375 69.109375 
Q 53.90625 64.015625 53.90625 55.328125 
Q 53.90625 49.265625 50.4375 45.09375 
Q 46.96875 40.921875 40.578125 39.3125 
z
" id="DejaVuSans-51"/>
       </defs>
       <use xlink:href="#DejaVuSans-51"/>
       <use x="63.623047" xlink:href="#DejaVuSans-48"/>
      </g>
     </g>
    </g>
    <g id="ytick_5">
     <g id="line2d_13">
      <g>
       <use style="stroke:#000000;stroke-width:0.8;" x="135" xlink:href="#m2b18252a80" y="93.728611"/>
      </g>
     </g>
     <g id="text_14">
      <!-- 40 -->
      <g transform="translate(115.275 97.52783)scale(0.1 -0.1)">
       <use xlink:href="#DejaVuSans-52"/>
       <use x="63.623047" xlink:href="#DejaVuSans-48"/>
      </g>
     </g>
    </g>
    <g id="ytick_6">
     <g id="line2d_14">
      <g>
       <use style="stroke:#000000;stroke-width:0.8;" x="135" xlink:href="#m2b18252a80" y="54.037954"/>
      </g>
     </g>
     <g id="text_15">
      <!-- 50 -->
      <g transform="translate(115.275 57.837173)scale(0.1 -0.1)">
       <defs>
        <path d="M 10.796875 72.90625 
L 49.515625 72.90625 
L 49.515625 64.59375 
L 19.828125 64.59375 
L 19.828125 46.734375 
Q 21.96875 47.46875 24.109375 47.828125 
Q 26.265625 48.1875 28.421875 48.1875 
Q 40.625 48.1875 47.75 41.5 
Q 54.890625 34.8125 54.890625 23.390625 
Q 54.890625 11.625 47.5625 5.09375 
Q 40.234375 -1.421875 26.90625 -1.421875 
Q 22.3125 -1.421875 17.546875 -0.640625 
Q 12.796875 0.140625 7.71875 1.703125 
L 7.71875 11.625 
Q 12.109375 9.234375 16.796875 8.0625 
Q 21.484375 6.890625 26.703125 6.890625 
Q 35.15625 6.890625 40.078125 11.328125 
Q 45.015625 15.765625 45.015625 23.390625 
Q 45.015625 31 40.078125 35.4375 
Q 35.15625 39.890625 26.703125 39.890625 
Q 22.75 39.890625 18.8125 39.015625 
Q 14.890625 38.140625 10.796875 36.28125 
z
" id="DejaVuSans-53"/>
       </defs>
       <use xlink:href="#DejaVuSans-53"/>
       <use x="63.623047" xlink:href="#DejaVuSans-48"/>
      </g>
     </g>
    </g>
    <g id="text_16">
     <!-- Nanosecond per element -->
     <g transform="translate(109.195312 208.407969)rotate(-90)scale(0.1 -0.1)">
      <defs>
       <path d="M 34.28125 27.484375 
Q 23.390625 27.484375 19.1875 25 
Q 14.984375 22.515625 14.984375 16.5 
Q 14.984375 11.71875 18.140625 8.90625 
Q 21.296875 6.109375 26.703125 6.109375 
Q 34.1875 6.109375 38.703125 11.40625 
Q 43.21875 16.703125 43.21875 25.484375 
L 43.21875 27.484375 
z
M 52.203125 31.203125 
L 52.203125 0 
L 43.21875 0 
L 43.21875 8.296875 
Q 40.140625 3.328125 35.546875 0.953125 
Q 30.953125 -1.421875 24.3125 -1.421875 
Q 15.921875 -1.421875 10.953125 3.296875 
Q 6 8.015625 6 15.921875 
Q 6 25.140625 12.171875 29.828125 
Q 18.359375 34.515625 30.609375 34.515625 
L 43.21875 34.515625 
L 43.21875 35.40625 
Q 43.21875 41.609375 39.140625 45 
Q 35.0625 48.390625 27.6875 48.390625 
Q 23 48.390625 18.546875 47.265625 
Q 14.109375 46.140625 10.015625 43.890625 
L 10.015625 52.203125 
Q 14.9375 54.109375 19.578125 55.046875 
Q 24.21875 56 28.609375 56 
Q 40.484375 56 46.34375 49.84375 
Q 52.203125 43.703125 52.203125 31.203125 
z
" id="DejaVuSans-97"/>
       <path d="M 48.78125 52.59375 
L 48.78125 44.1875 
Q 44.96875 46.296875 41.140625 47.34375 
Q 37.3125 48.390625 33.40625 48.390625 
Q 24.65625 48.390625 19.8125 42.84375 
Q 14.984375 37.3125 14.984375 27.296875 
Q 14.984375 17.28125 19.8125 11.734375 
Q 24.65625 6.203125 33.40625 6.203125 
Q 37.3125 6.203125 41.140625 7.25 
Q 44.96875 8.296875 48.78125 10.40625 
L 48.78125 2.09375 
Q 45.015625 0.34375 40.984375 -0.53125 
Q 36.96875 -1.421875 32.421875 -1.421875 
Q 20.0625 -1.421875 12.78125 6.34375 
Q 5.515625 14.109375 5.515625 27.296875 
Q 5.515625 40.671875 12.859375 48.328125 
Q 20.21875 56 33.015625 56 
Q 37.15625 56 41.109375 55.140625 
Q 45.0625 54.296875 48.78125 52.59375 
z
" id="DejaVuSans-99"/>
       <path d="M 45.40625 46.390625 
L 45.40625 75.984375 
L 54.390625 75.984375 
L 54.390625 0 
L 45.40625 0 
L 45.40625 8.203125 
Q 42.578125 3.328125 38.25 0.953125 
Q 33.9375 -1.421875 27.875 -1.421875 
Q 17.96875 -1.421875 11.734375 6.484375 
Q 5.515625 14.40625 5.515625 27.296875 
Q 5.515625 40.1875 11.734375 48.09375 
Q 17.96875 56 27.875 56 
Q 33.9375 56 38.25 53.625 
Q 42.578125 51.265625 45.40625 46.390625 
z
M 14.796875 27.296875 
Q 14.796875 17.390625 18.875 11.75 
Q 22.953125 6.109375 30.078125 6.109375 
Q 37.203125 6.109375 41.296875 11.75 
Q 45.40625 17.390625 45.40625 27.296875 
Q 45.40625 37.203125 41.296875 42.84375 
Q 37.203125 48.484375 30.078125 48.484375 
Q 22.953125 48.484375 18.875 42.84375 
Q 14.796875 37.203125 14.796875 27.296875 
z
" id="DejaVuSans-100"/>
       <path d="M 18.109375 8.203125 
L 18.109375 -20.796875 
L 9.078125 -20.796875 
L 9.078125 54.6875 
L 18.109375 54.6875 
L 18.109375 46.390625 
Q 20.953125 51.265625 25.265625 53.625 
Q 29.59375 56 35.59375 56 
Q 45.5625 56 51.78125 48.09375 
Q 58.015625 40.1875 58.015625 27.296875 
Q 58.015625 14.40625 51.78125 6.484375 
Q 45.5625 -1.421875 35.59375 -1.421875 
Q 29.59375 -1.421875 25.265625 0.953125 
Q 20.953125 3.328125 18.109375 8.203125 
z
M 48.6875 27.296875 
Q 48.6875 37.203125 44.609375 42.84375 
Q 40.53125 48.484375 33.40625 48.484375 
Q 26.265625 48.484375 22.1875 42.84375 
Q 18.109375 37.203125 18.109375 27.296875 
Q 18.109375 17.390625 22.1875 11.75 
Q 26.265625 6.109375 33.40625 6.109375 
Q 40.53125 6.109375 44.609375 11.75 
Q 48.6875 17.390625 48.6875 27.296875 
z
" id="DejaVuSans-112"/>
      </defs>
      <use xlink:href="#DejaVuSans-78"/>
      <use x="74.804688" xlink:href="#DejaVuSans-97"/>
      <use x="136.083984" xlink:href="#DejaVuSans-110"/>
      <use x="199.462891" xlink:href="#DejaVuSans-111"/>
      <use x="260.644531" xlink:href="#DejaVuSans-115"/>
      <use x="312.744141" xlink:href="#DejaVuSans-101"/>
      <use x="374.267578" xlink:href="#DejaVuSans-99"/>
      <use x="429.248047" xlink:href="#DejaVuSans-111"/>
      <use x="490.429688" xlink:href="#DejaVuSans-110"/>
      <use x="553.808594" xlink:href="#DejaVuSans-100"/>
      <use x="617.285156" xlink:href="#DejaVuSans-32"/>
      <use x="649.072266" xlink:href="#DejaVuSans-112"/>
      <use x="712.548828" xlink:href="#DejaVuSans-101"/>
      <use x="774.072266" xlink:href="#DejaVuSans-114"/>
      <use x="815.185547" xlink:href="#DejaVuSans-32"/>
      <use x="846.972656" xlink:href="#DejaVuSans-101"/>
      <use x="908.496094" xlink:href="#DejaVuSans-108"/>
      <use x="936.279297" xlink:href="#DejaVuSans-101"/>
      <use x="997.802734" xlink:href="#DejaVuSans-109"/>
      <use x="1095.214844" xlink:href="#DejaVuSans-101"/>
      <use x="1156.738281" xlink:href="#DejaVuSans-110"/>
      <use x="1220.117188" xlink:href="#DejaVuSans-116"/>
     </g>
    </g>
   </g>
   <g id="patch_3">
    <path d="M 135 256.32 
L 135 34.56 
" style="fill:none;stroke:#000000;stroke-linecap:square;stroke-linejoin:miter;stroke-width:0.8;"/>
   </g>
   <g id="patch_4">
    <path d="M 381.176471 256.32 
L 381.176471 34.56 
" style="fill:none;stroke:#000000;stroke-linecap:square;stroke-linejoin:miter;stroke-width:0.8;"/>
   </g>
   <g id="patch_5">
    <path d="M 135 256.32 
L 381.176471 256.32 
" style="fill:none;stroke:#000000;stroke-linecap:square;stroke-linejoin:miter;stroke-width:0.8;"/>
   </g>
   <g id="patch_6">
    <path d="M 135 34.56 
L 381.176471 34.56 
" style="fill:none;stroke:#000000;stroke-linecap:square;stroke-linejoin:miter;stroke-width:0.8;"/>
   </g>
   <g id="text_17">
    <!-- Random uint64 -->
    <g transform="translate(212.084173 28.56)scale(0.12 -0.12)">
     <defs>
      <path d="M 44.390625 34.1875 
Q 47.5625 33.109375 50.5625 29.59375 
Q 53.5625 26.078125 56.59375 19.921875 
L 66.609375 0 
L 56 0 
L 46.6875 18.703125 
Q 43.0625 26.03125 39.671875 28.421875 
Q 36.28125 30.8125 30.421875 30.8125 
L 19.671875 30.8125 
L 19.671875 0 
L 9.8125 0 
L 9.8125 72.90625 
L 32.078125 72.90625 
Q 44.578125 72.90625 50.734375 67.671875 
Q 56.890625 62.453125 56.890625 51.90625 
Q 56.890625 45.015625 53.6875 40.46875 
Q 50.484375 35.9375 44.390625 34.1875 
z
M 19.671875 64.796875 
L 19.671875 38.921875 
L 32.078125 38.921875 
Q 39.203125 38.921875 42.84375 42.21875 
Q 46.484375 45.515625 46.484375 51.90625 
Q 46.484375 58.296875 42.84375 61.546875 
Q 39.203125 64.796875 32.078125 64.796875 
z
" id="DejaVuSans-82"/>
      <path d="M 9.421875 54.6875 
L 18.40625 54.6875 
L 18.40625 0 
L 9.421875 0 
z
M 9.421875 75.984375 
L 18.40625 75.984375 
L 18.40625 64.59375 
L 9.421875 64.59375 
z
" id="DejaVuSans-105"/>
     </defs>
     <use xlink:href="#DejaVuSans-82"/>
     <use x="67.232422" xlink:href="#DejaVuSans-97"/>
     <use x="128.511719" xlink:href="#DejaVuSans-110"/>
     <use x="191.890625" xlink:href="#DejaVuSans-100"/>
     <use x="255.367188" xlink:href="#DejaVuSans-111"/>
     <use x="316.548828" xlink:href="#DejaVuSans-109"/>
     <use x="413.960938" xlink:href="#DejaVuSans-32"/>
     <use x="445.748047" xlink:href="#DejaVuSans-117"/>
     <use x="509.126953" xlink:href="#DejaVuSans-105"/>
     <use x="536.910156" xlink:href="#DejaVuSans-110"/>
     <use x="600.289062" xlink:href="#DejaVuSans-116"/>
     <use x="639.498047" xlink:href="#DejaVuSans-54"/>
     <use x="703.121094" xlink:href="#DejaVuSans-52"/>
    </g>
   </g>
   <g id="legend_1">
    <g id="patch_7">
     <path d="M 142 86.594375 
L 223.340625 86.594375 
Q 225.340625 86.594375 225.340625 84.594375 
L 225.340625 41.56 
Q 225.340625 39.56 223.340625 39.56 
L 142 39.56 
Q 140 39.56 140 41.56 
L 140 84.594375 
Q 140 86.594375 142 86.594375 
z
" style="fill:#ffffff;opacity:0.8;stroke:#cccccc;stroke-linejoin:miter;"/>
    </g>
    <g id="PathCollection_4">
     <g>
      <use style="fill:#1f77b4;stroke:#1f77b4;" x="154" xlink:href="#mdc2163bfd9" y="48.533438"/>
     </g>
    </g>
    <g id="text_18">
     <!-- std::sort -->
     <g transform="translate(172 51.158438)scale(0.1 -0.1)">
      <defs>
       <path d="M 11.71875 12.40625 
L 22.015625 12.40625 
L 22.015625 0 
L 11.71875 0 
z
M 11.71875 51.703125 
L 22.015625 51.703125 
L 22.015625 39.3125 
L 11.71875 39.3125 
z
" id="DejaVuSans-58"/>
      </defs>
      <use xlink:href="#DejaVuSans-115"/>
      <use x="52.099609" xlink:href="#DejaVuSans-116"/>
      <use x="91.308594" xlink:href="#DejaVuSans-100"/>
      <use x="154.785156" xlink:href="#DejaVuSans-58"/>
      <use x="188.476562" xlink:href="#DejaVuSans-58"/>
      <use x="222.167969" xlink:href="#DejaVuSans-115"/>
      <use x="274.267578" xlink:href="#DejaVuSans-111"/>
      <use x="335.449219" xlink:href="#DejaVuSans-114"/>
      <use x="376.5625" xlink:href="#DejaVuSans-116"/>
     </g>
    </g>
    <g id="PathCollection_5">
     <g>
      <use style="fill:#ff7f0e;stroke:#ff7f0e;" x="154" xlink:href="#m58287cf920" y="63.211563"/>
     </g>
    </g>
    <g id="text_19">
     <!-- BitsetSort -->
     <g transform="translate(172 65.836563)scale(0.1 -0.1)">
      <defs>
       <path d="M 19.671875 34.8125 
L 19.671875 8.109375 
L 35.5 8.109375 
Q 43.453125 8.109375 47.28125 11.40625 
Q 51.125 14.703125 51.125 21.484375 
Q 51.125 28.328125 47.28125 31.5625 
Q 43.453125 34.8125 35.5 34.8125 
z
M 19.671875 64.796875 
L 19.671875 42.828125 
L 34.28125 42.828125 
Q 41.5 42.828125 45.03125 45.53125 
Q 48.578125 48.25 48.578125 53.8125 
Q 48.578125 59.328125 45.03125 62.0625 
Q 41.5 64.796875 34.28125 64.796875 
z
M 9.8125 72.90625 
L 35.015625 72.90625 
Q 46.296875 72.90625 52.390625 68.21875 
Q 58.5 63.53125 58.5 54.890625 
Q 58.5 48.1875 55.375 44.234375 
Q 52.25 40.28125 46.1875 39.3125 
Q 53.46875 37.75 57.5 32.78125 
Q 61.53125 27.828125 61.53125 20.40625 
Q 61.53125 10.640625 54.890625 5.3125 
Q 48.25 0 35.984375 0 
L 9.8125 0 
z
" id="DejaVuSans-66"/>
       <path d="M 53.515625 70.515625 
L 53.515625 60.890625 
Q 47.90625 63.578125 42.921875 64.890625 
Q 37.9375 66.21875 33.296875 66.21875 
Q 25.25 66.21875 20.875 63.09375 
Q 16.5 59.96875 16.5 54.203125 
Q 16.5 49.359375 19.40625 46.890625 
Q 22.3125 44.4375 30.421875 42.921875 
L 36.375 41.703125 
Q 47.40625 39.59375 52.65625 34.296875 
Q 57.90625 29 57.90625 20.125 
Q 57.90625 9.515625 50.796875 4.046875 
Q 43.703125 -1.421875 29.984375 -1.421875 
Q 24.8125 -1.421875 18.96875 -0.25 
Q 13.140625 0.921875 6.890625 3.21875 
L 6.890625 13.375 
Q 12.890625 10.015625 18.65625 8.296875 
Q 24.421875 6.59375 29.984375 6.59375 
Q 38.421875 6.59375 43.015625 9.90625 
Q 47.609375 13.234375 47.609375 19.390625 
Q 47.609375 24.75 44.3125 27.78125 
Q 41.015625 30.8125 33.5 32.328125 
L 27.484375 33.5 
Q 16.453125 35.6875 11.515625 40.375 
Q 6.59375 45.0625 6.59375 53.421875 
Q 6.59375 63.09375 13.40625 68.65625 
Q 20.21875 74.21875 32.171875 74.21875 
Q 37.3125 74.21875 42.625 73.28125 
Q 47.953125 72.359375 53.515625 70.515625 
z
" id="DejaVuSans-83"/>
      </defs>
      <use xlink:href="#DejaVuSans-66"/>
      <use x="68.603516" xlink:href="#DejaVuSans-105"/>
      <use x="96.386719" xlink:href="#DejaVuSans-116"/>
      <use x="135.595703" xlink:href="#DejaVuSans-115"/>
      <use x="187.695312" xlink:href="#DejaVuSans-101"/>
      <use x="249.21875" xlink:href="#DejaVuSans-116"/>
      <use x="288.427734" xlink:href="#DejaVuSans-83"/>
      <use x="351.904297" xlink:href="#DejaVuSans-111"/>
      <use x="413.085938" xlink:href="#DejaVuSans-114"/>
      <use x="454.199219" xlink:href="#DejaVuSans-116"/>
     </g>
    </g>
    <g id="PathCollection_6">
     <g>
      <use style="fill:#2ca02c;stroke:#2ca02c;" x="154" xlink:href="#m864a139d48" y="77.889688"/>
     </g>
    </g>
    <g id="text_20">
     <!-- PdqSort -->
     <g transform="translate(172 80.514688)scale(0.1 -0.1)">
      <defs>
       <path d="M 19.671875 64.796875 
L 19.671875 37.40625 
L 32.078125 37.40625 
Q 38.96875 37.40625 42.71875 40.96875 
Q 46.484375 44.53125 46.484375 51.125 
Q 46.484375 57.671875 42.71875 61.234375 
Q 38.96875 64.796875 32.078125 64.796875 
z
M 9.8125 72.90625 
L 32.078125 72.90625 
Q 44.34375 72.90625 50.609375 67.359375 
Q 56.890625 61.8125 56.890625 51.125 
Q 56.890625 40.328125 50.609375 34.8125 
Q 44.34375 29.296875 32.078125 29.296875 
L 19.671875 29.296875 
L 19.671875 0 
L 9.8125 0 
z
" id="DejaVuSans-80"/>
       <path d="M 14.796875 27.296875 
Q 14.796875 17.390625 18.875 11.75 
Q 22.953125 6.109375 30.078125 6.109375 
Q 37.203125 6.109375 41.296875 11.75 
Q 45.40625 17.390625 45.40625 27.296875 
Q 45.40625 37.203125 41.296875 42.84375 
Q 37.203125 48.484375 30.078125 48.484375 
Q 22.953125 48.484375 18.875 42.84375 
Q 14.796875 37.203125 14.796875 27.296875 
z
M 45.40625 8.203125 
Q 42.578125 3.328125 38.25 0.953125 
Q 33.9375 -1.421875 27.875 -1.421875 
Q 17.96875 -1.421875 11.734375 6.484375 
Q 5.515625 14.40625 5.515625 27.296875 
Q 5.515625 40.1875 11.734375 48.09375 
Q 17.96875 56 27.875 56 
Q 33.9375 56 38.25 53.625 
Q 42.578125 51.265625 45.40625 46.390625 
L 45.40625 54.6875 
L 54.390625 54.6875 
L 54.390625 -20.796875 
L 45.40625 -20.796875 
z
" id="DejaVuSans-113"/>
      </defs>
      <use xlink:href="#DejaVuSans-80"/>
      <use x="60.302734" xlink:href="#DejaVuSans-100"/>
      <use x="123.779297" xlink:href="#DejaVuSans-113"/>
      <use x="187.255859" xlink:href="#DejaVuSans-83"/>
      <use x="250.732422" xlink:href="#DejaVuSans-111"/>
      <use x="311.914062" xlink:href="#DejaVuSans-114"/>
      <use x="353.027344" xlink:href="#DejaVuSans-116"/>
     </g>
    </g>
   </g>
  </g>
  <g id="axes_2">
   <g id="patch_8">
    <path d="M 430.411765 256.32 
L 676.588235 256.32 
L 676.588235 34.56 
L 430.411765 34.56 
z
" style="fill:#ffffff;"/>
   </g>
   <g id="PathCollection_7">
    <g clip-path="url(#p3a3eb32f17)">
     <use style="fill:#1f77b4;stroke:#1f77b4;" x="441.601604" xlink:href="#mdc2163bfd9" y="246.24"/>
     <use style="fill:#1f77b4;stroke:#1f77b4;" x="466.467914" xlink:href="#mdc2163bfd9" y="239.236685"/>
     <use style="fill:#1f77b4;stroke:#1f77b4;" x="491.334225" xlink:href="#mdc2163bfd9" y="200.806613"/>
     <use style="fill:#1f77b4;stroke:#1f77b4;" x="516.200535" xlink:href="#mdc2163bfd9" y="172.748317"/>
     <use style="fill:#1f77b4;stroke:#1f77b4;" x="541.066845" xlink:href="#mdc2163bfd9" y="151.704004"/>
     <use style="fill:#1f77b4;stroke:#1f77b4;" x="565.933155" xlink:href="#mdc2163bfd9" y="131.579583"/>
     <use style="fill:#1f77b4;stroke:#1f77b4;" x="615.665775" xlink:href="#mdc2163bfd9" y="92.572429"/>
     <use style="fill:#1f77b4;stroke:#1f77b4;" x="665.398396" xlink:href="#mdc2163bfd9" y="44.64"/>
    </g>
   </g>
   <g id="PathCollection_8">
    <g clip-path="url(#p3a3eb32f17)">
     <use style="fill:#ff7f0e;stroke:#ff7f0e;" x="441.601604" xlink:href="#m58287cf920" y="241.97845"/>
     <use style="fill:#ff7f0e;stroke:#ff7f0e;" x="466.467914" xlink:href="#m58287cf920" y="238.627187"/>
     <use style="fill:#ff7f0e;stroke:#ff7f0e;" x="491.334225" xlink:href="#m58287cf920" y="219.087707"/>
     <use style="fill:#ff7f0e;stroke:#ff7f0e;" x="516.200535" xlink:href="#m58287cf920" y="196.140671"/>
     <use style="fill:#ff7f0e;stroke:#ff7f0e;" x="541.066845" xlink:href="#m58287cf920" y="186.303483"/>
     <use style="fill:#ff7f0e;stroke:#ff7f0e;" x="565.933155" xlink:href="#m58287cf920" y="180.639639"/>
     <use style="fill:#ff7f0e;stroke:#ff7f0e;" x="615.665775" xlink:href="#m58287cf920" y="171.337601"/>
     <use style="fill:#ff7f0e;stroke:#ff7f0e;" x="665.398396" xlink:href="#m58287cf920" y="162.230298"/>
    </g>
   </g>
   <g id="PathCollection_9">
    <g clip-path="url(#p3a3eb32f17)">
     <use style="fill:#2ca02c;stroke:#2ca02c;" x="441.601604" xlink:href="#m864a139d48" y="244.613421"/>
     <use style="fill:#2ca02c;stroke:#2ca02c;" x="466.467914" xlink:href="#m864a139d48" y="238.589865"/>
     <use style="fill:#2ca02c;stroke:#2ca02c;" x="491.334225" xlink:href="#m864a139d48" y="217.853995"/>
     <use style="fill:#2ca02c;stroke:#2ca02c;" x="516.200535" xlink:href="#m864a139d48" y="190.074651"/>
     <use style="fill:#2ca02c;stroke:#2ca02c;" x="541.066845" xlink:href="#m864a139d48" y="169.586469"/>
     <use style="fill:#2ca02c;stroke:#2ca02c;" x="565.933155" xlink:href="#m864a139d48" y="149.293022"/>
     <use style="fill:#2ca02c;stroke:#2ca02c;" x="615.665775" xlink:href="#m864a139d48" y="108.537691"/>
     <use style="fill:#2ca02c;stroke:#2ca02c;" x="665.398396" xlink:href="#m864a139d48" y="72.572117"/>
    </g>
   </g>
   <g id="matplotlib.axis_3">
    <g id="xtick_9">
     <g id="line2d_15">
      <g>
       <use style="stroke:#000000;stroke-width:0.8;" x="441.601604" xlink:href="#md69b674eda" y="256.32"/>
      </g>
     </g>
     <g id="text_21">
      <!-- $\mathdefault{2^{0}}$ -->
      <g transform="translate(436.001604 270.918437)scale(0.1 -0.1)">
       <use transform="translate(0 0.765625)" xlink:href="#DejaVuSans-50"/>
       <use transform="translate(64.580078 39.046875)scale(0.7)" xlink:href="#DejaVuSans-48"/>
      </g>
     </g>
    </g>
    <g id="xtick_10">
     <g id="line2d_16">
      <g>
       <use style="stroke:#000000;stroke-width:0.8;" x="466.467914" xlink:href="#md69b674eda" y="256.32"/>
      </g>
     </g>
     <g id="text_22">
      <!-- $\mathdefault{2^{2}}$ -->
      <g transform="translate(460.867914 270.918437)scale(0.1 -0.1)">
       <use transform="translate(0 0.765625)" xlink:href="#DejaVuSans-50"/>
       <use transform="translate(64.580078 39.046875)scale(0.7)" xlink:href="#DejaVuSans-50"/>
      </g>
     </g>
    </g>
    <g id="xtick_11">
     <g id="line2d_17">
      <g>
       <use style="stroke:#000000;stroke-width:0.8;" x="491.334225" xlink:href="#md69b674eda" y="256.32"/>
      </g>
     </g>
     <g id="text_23">
      <!-- $\mathdefault{2^{4}}$ -->
      <g transform="translate(485.734225 270.918437)scale(0.1 -0.1)">
       <use transform="translate(0 0.684375)" xlink:href="#DejaVuSans-50"/>
       <use transform="translate(64.580078 38.965625)scale(0.7)" xlink:href="#DejaVuSans-52"/>
      </g>
     </g>
    </g>
    <g id="xtick_12">
     <g id="line2d_18">
      <g>
       <use style="stroke:#000000;stroke-width:0.8;" x="516.200535" xlink:href="#md69b674eda" y="256.32"/>
      </g>
     </g>
     <g id="text_24">
      <!-- $\mathdefault{2^{6}}$ -->
      <g transform="translate(510.600535 270.918437)scale(0.1 -0.1)">
       <use transform="translate(0 0.765625)" xlink:href="#DejaVuSans-50"/>
       <use transform="translate(64.580078 39.046875)scale(0.7)" xlink:href="#DejaVuSans-54"/>
      </g>
     </g>
    </g>
    <g id="xtick_13">
     <g id="line2d_19">
      <g>
       <use style="stroke:#000000;stroke-width:0.8;" x="541.066845" xlink:href="#md69b674eda" y="256.32"/>
      </g>
     </g>
     <g id="text_25">
      <!-- $\mathdefault{2^{8}}$ -->
      <g transform="translate(535.466845 270.918437)scale(0.1 -0.1)">
       <use transform="translate(0 0.765625)" xlink:href="#DejaVuSans-50"/>
       <use transform="translate(64.580078 39.046875)scale(0.7)" xlink:href="#DejaVuSans-56"/>
      </g>
     </g>
    </g>
    <g id="xtick_14">
     <g id="line2d_20">
      <g>
       <use style="stroke:#000000;stroke-width:0.8;" x="565.933155" xlink:href="#md69b674eda" y="256.32"/>
      </g>
     </g>
     <g id="text_26">
      <!-- $\mathdefault{2^{10}}$ -->
      <g transform="translate(558.083155 270.918437)scale(0.1 -0.1)">
       <use transform="translate(0 0.765625)" xlink:href="#DejaVuSans-50"/>
       <use transform="translate(64.580078 39.046875)scale(0.7)" xlink:href="#DejaVuSans-49"/>
       <use transform="translate(109.116211 39.046875)scale(0.7)" xlink:href="#DejaVuSans-48"/>
      </g>
     </g>
    </g>
    <g id="xtick_15">
     <g id="line2d_21">
      <g>
       <use style="stroke:#000000;stroke-width:0.8;" x="615.665775" xlink:href="#md69b674eda" y="256.32"/>
      </g>
     </g>
     <g id="text_27">
      <!-- $\mathdefault{2^{14}}$ -->
      <g transform="translate(607.815775 270.918437)scale(0.1 -0.1)">
       <use transform="translate(0 0.684375)" xlink:href="#DejaVuSans-50"/>
       <use transform="translate(64.580078 38.965625)scale(0.7)" xlink:href="#DejaVuSans-49"/>
       <use transform="translate(109.116211 38.965625)scale(0.7)" xlink:href="#DejaVuSans-52"/>
      </g>
     </g>
    </g>
    <g id="xtick_16">
     <g id="line2d_22">
      <g>
       <use style="stroke:#000000;stroke-width:0.8;" x="665.398396" xlink:href="#md69b674eda" y="256.32"/>
      </g>
     </g>
     <g id="text_28">
      <!-- $\mathdefault{2^{18}}$ -->
      <g transform="translate(657.548396 270.918437)scale(0.1 -0.1)">
       <use transform="translate(0 0.765625)" xlink:href="#DejaVuSans-50"/>
       <use transform="translate(64.580078 39.046875)scale(0.7)" xlink:href="#DejaVuSans-49"/>
       <use transform="translate(109.116211 39.046875)scale(0.7)" xlink:href="#DejaVuSans-56"/>
      </g>
     </g>
    </g>
    <g id="text_29">
     <!-- Number of elements -->
     <g transform="translate(502.19375 284.596563)scale(0.1 -0.1)">
      <use xlink:href="#DejaVuSans-78"/>
      <use x="74.804688" xlink:href="#DejaVuSans-117"/>
      <use x="138.183594" xlink:href="#DejaVuSans-109"/>
      <use x="235.595703" xlink:href="#DejaVuSans-98"/>
      <use x="299.072266" xlink:href="#DejaVuSans-101"/>
      <use x="360.595703" xlink:href="#DejaVuSans-114"/>
      <use x="401.708984" xlink:href="#DejaVuSans-32"/>
      <use x="433.496094" xlink:href="#DejaVuSans-111"/>
      <use x="494.677734" xlink:href="#DejaVuSans-102"/>
      <use x="529.882812" xlink:href="#DejaVuSans-32"/>
      <use x="561.669922" xlink:href="#DejaVuSans-101"/>
      <use x="623.193359" xlink:href="#DejaVuSans-108"/>
      <use x="650.976562" xlink:href="#DejaVuSans-101"/>
      <use x="712.5" xlink:href="#DejaVuSans-109"/>
      <use x="809.912109" xlink:href="#DejaVuSans-101"/>
      <use x="871.435547" xlink:href="#DejaVuSans-110"/>
      <use x="934.814453" xlink:href="#DejaVuSans-116"/>
      <use x="974.023438" xlink:href="#DejaVuSans-115"/>
     </g>
    </g>
   </g>
   <g id="matplotlib.axis_4">
    <g id="ytick_7">
     <g id="line2d_23">
      <g>
       <use style="stroke:#000000;stroke-width:0.8;" x="430.411765" xlink:href="#m2b18252a80" y="254.847022"/>
      </g>
     </g>
     <g id="text_30">
      <!-- 0 -->
      <g transform="translate(417.049265 258.646241)scale(0.1 -0.1)">
       <use xlink:href="#DejaVuSans-48"/>
      </g>
     </g>
    </g>
    <g id="ytick_8">
     <g id="line2d_24">
      <g>
       <use style="stroke:#000000;stroke-width:0.8;" x="430.411765" xlink:href="#m2b18252a80" y="225.297044"/>
      </g>
     </g>
     <g id="text_31">
      <!-- 10 -->
      <g transform="translate(410.686765 229.096263)scale(0.1 -0.1)">
       <use xlink:href="#DejaVuSans-49"/>
       <use x="63.623047" xlink:href="#DejaVuSans-48"/>
      </g>
     </g>
    </g>
    <g id="ytick_9">
     <g id="line2d_25">
      <g>
       <use style="stroke:#000000;stroke-width:0.8;" x="430.411765" xlink:href="#m2b18252a80" y="195.747065"/>
      </g>
     </g>
     <g id="text_32">
      <!-- 20 -->
      <g transform="translate(410.686765 199.546284)scale(0.1 -0.1)">
       <use xlink:href="#DejaVuSans-50"/>
       <use x="63.623047" xlink:href="#DejaVuSans-48"/>
      </g>
     </g>
    </g>
    <g id="ytick_10">
     <g id="line2d_26">
      <g>
       <use style="stroke:#000000;stroke-width:0.8;" x="430.411765" xlink:href="#m2b18252a80" y="166.197087"/>
      </g>
     </g>
     <g id="text_33">
      <!-- 30 -->
      <g transform="translate(410.686765 169.996306)scale(0.1 -0.1)">
       <use xlink:href="#DejaVuSans-51"/>
       <use x="63.623047" xlink:href="#DejaVuSans-48"/>
      </g>
     </g>
    </g>
    <g id="ytick_11">
     <g id="line2d_27">
      <g>
       <use style="stroke:#000000;stroke-width:0.8;" x="430.411765" xlink:href="#m2b18252a80" y="136.647108"/>
      </g>
     </g>
     <g id="text_34">
      <!-- 40 -->
      <g transform="translate(410.686765 140.446327)scale(0.1 -0.1)">
       <use xlink:href="#DejaVuSans-52"/>
       <use x="63.623047" xlink:href="#DejaVuSans-48"/>
      </g>
     </g>
    </g>
    <g id="ytick_12">
     <g id="line2d_28">
      <g>
       <use style="stroke:#000000;stroke-width:0.8;" x="430.411765" xlink:href="#m2b18252a80" y="107.09713"/>
      </g>
     </g>
     <g id="text_35">
      <!-- 50 -->
      <g transform="translate(410.686765 110.896349)scale(0.1 -0.1)">
       <use xlink:href="#DejaVuSans-53"/>
       <use x="63.623047" xlink:href="#DejaVuSans-48"/>
      </g>
     </g>
    </g>
    <g id="ytick_13">
     <g id="line2d_29">
      <g>
       <use style="stroke:#000000;stroke-width:0.8;" x="430.411765" xlink:href="#m2b18252a80" y="77.547152"/>
      </g>
     </g>
     <g id="text_36">
      <!-- 60 -->
      <g transform="translate(410.686765 81.34637)scale(0.1 -0.1)">
       <use xlink:href="#DejaVuSans-54"/>
       <use x="63.623047" xlink:href="#DejaVuSans-48"/>
      </g>
     </g>
    </g>
    <g id="ytick_14">
     <g id="line2d_30">
      <g>
       <use style="stroke:#000000;stroke-width:0.8;" x="430.411765" xlink:href="#m2b18252a80" y="47.997173"/>
      </g>
     </g>
     <g id="text_37">
      <!-- 70 -->
      <g transform="translate(410.686765 51.796392)scale(0.1 -0.1)">
       <defs>
        <path d="M 8.203125 72.90625 
L 55.078125 72.90625 
L 55.078125 68.703125 
L 28.609375 0 
L 18.3125 0 
L 43.21875 64.59375 
L 8.203125 64.59375 
z
" id="DejaVuSans-55"/>
       </defs>
       <use xlink:href="#DejaVuSans-55"/>
       <use x="63.623047" xlink:href="#DejaVuSans-48"/>
      </g>
     </g>
    </g>
    <g id="text_38">
     <!-- Nanosecond per element -->
     <g transform="translate(404.607077 208.407969)rotate(-90)scale(0.1 -0.1)">
      <use xlink:href="#DejaVuSans-78"/>
      <use x="74.804688" xlink:href="#DejaVuSans-97"/>
      <use x="136.083984" xlink:href="#DejaVuSans-110"/>
      <use x="199.462891" xlink:href="#DejaVuSans-111"/>
      <use x="260.644531" xlink:href="#DejaVuSans-115"/>
      <use x="312.744141" xlink:href="#DejaVuSans-101"/>
      <use x="374.267578" xlink:href="#DejaVuSans-99"/>
      <use x="429.248047" xlink:href="#DejaVuSans-111"/>
      <use x="490.429688" xlink:href="#DejaVuSans-110"/>
      <use x="553.808594" xlink:href="#DejaVuSans-100"/>
      <use x="617.285156" xlink:href="#DejaVuSans-32"/>
      <use x="649.072266" xlink:href="#DejaVuSans-112"/>
      <use x="712.548828" xlink:href="#DejaVuSans-101"/>
      <use x="774.072266" xlink:href="#DejaVuSans-114"/>
      <use x="815.185547" xlink:href="#DejaVuSans-32"/>
      <use x="846.972656" xlink:href="#DejaVuSans-101"/>
      <use x="908.496094" xlink:href="#DejaVuSans-108"/>
      <use x="936.279297" xlink:href="#DejaVuSans-101"/>
      <use x="997.802734" xlink:href="#DejaVuSans-109"/>
      <use x="1095.214844" xlink:href="#DejaVuSans-101"/>
      <use x="1156.738281" xlink:href="#DejaVuSans-110"/>
      <use x="1220.117188" xlink:href="#DejaVuSans-116"/>
     </g>
    </g>
   </g>
   <g id="patch_9">
    <path d="M 430.411765 256.32 
L 430.411765 34.56 
" style="fill:none;stroke:#000000;stroke-linecap:square;stroke-linejoin:miter;stroke-width:0.8;"/>
   </g>
   <g id="patch_10">
    <path d="M 676.588235 256.32 
L 676.588235 34.56 
" style="fill:none;stroke:#000000;stroke-linecap:square;stroke-linejoin:miter;stroke-width:0.8;"/>
   </g>
   <g id="patch_11">
    <path d="M 430.411765 256.32 
L 676.588235 256.32 
" style="fill:none;stroke:#000000;stroke-linecap:square;stroke-linejoin:miter;stroke-width:0.8;"/>
   </g>
   <g id="patch_12">
    <path d="M 430.411765 34.56 
L 676.588235 34.56 
" style="fill:none;stroke:#000000;stroke-linecap:square;stroke-linejoin:miter;stroke-width:0.8;"/>
   </g>
   <g id="text_39">
    <!-- Random pair&lt;uint32, uint32&gt; -->
    <g transform="translate(462.748125 28.56)scale(0.12 -0.12)">
     <defs>
      <path d="M 73.1875 49.21875 
L 22.796875 31.296875 
L 73.1875 13.484375 
L 73.1875 4.59375 
L 10.59375 27.296875 
L 10.59375 35.40625 
L 73.1875 58.109375 
z
" id="DejaVuSans-60"/>
      <path d="M 11.71875 12.40625 
L 22.015625 12.40625 
L 22.015625 4 
L 14.015625 -11.625 
L 7.71875 -11.625 
L 11.71875 4 
z
" id="DejaVuSans-44"/>
      <path d="M 10.59375 49.21875 
L 10.59375 58.109375 
L 73.1875 35.40625 
L 73.1875 27.296875 
L 10.59375 4.59375 
L 10.59375 13.484375 
L 60.890625 31.296875 
z
" id="DejaVuSans-62"/>
     </defs>
     <use xlink:href="#DejaVuSans-82"/>
     <use x="67.232422" xlink:href="#DejaVuSans-97"/>
     <use x="128.511719" xlink:href="#DejaVuSans-110"/>
     <use x="191.890625" xlink:href="#DejaVuSans-100"/>
     <use x="255.367188" xlink:href="#DejaVuSans-111"/>
     <use x="316.548828" xlink:href="#DejaVuSans-109"/>
     <use x="413.960938" xlink:href="#DejaVuSans-32"/>
     <use x="445.748047" xlink:href="#DejaVuSans-112"/>
     <use x="509.224609" xlink:href="#DejaVuSans-97"/>
     <use x="570.503906" xlink:href="#DejaVuSans-105"/>
     <use x="598.287109" xlink:href="#DejaVuSans-114"/>
     <use x="639.400391" xlink:href="#DejaVuSans-60"/>
     <use x="723.189453" xlink:href="#DejaVuSans-117"/>
     <use x="786.568359" xlink:href="#DejaVuSans-105"/>
     <use x="814.351562" xlink:href="#DejaVuSans-110"/>
     <use x="877.730469" xlink:href="#DejaVuSans-116"/>
     <use x="916.939453" xlink:href="#DejaVuSans-51"/>
     <use x="980.5625" xlink:href="#DejaVuSans-50"/>
     <use x="1044.185547" xlink:href="#DejaVuSans-44"/>
     <use x="1075.972656" xlink:href="#DejaVuSans-32"/>
     <use x="1107.759766" xlink:href="#DejaVuSans-117"/>
     <use x="1171.138672" xlink:href="#DejaVuSans-105"/>
     <use x="1198.921875" xlink:href="#DejaVuSans-110"/>
     <use x="1262.300781" xlink:href="#DejaVuSans-116"/>
     <use x="1301.509766" xlink:href="#DejaVuSans-51"/>
     <use x="1365.132812" xlink:href="#DejaVuSans-50"/>
     <use x="1428.755859" xlink:href="#DejaVuSans-62"/>
    </g>
   </g>
   <g id="legend_2">
    <g id="patch_13">
     <path d="M 437.411765 86.594375 
L 518.75239 86.594375 
Q 520.75239 86.594375 520.75239 84.594375 
L 520.75239 41.56 
Q 520.75239 39.56 518.75239 39.56 
L 437.411765 39.56 
Q 435.411765 39.56 435.411765 41.56 
L 435.411765 84.594375 
Q 435.411765 86.594375 437.411765 86.594375 
z
" style="fill:#ffffff;opacity:0.8;stroke:#cccccc;stroke-linejoin:miter;"/>
    </g>
    <g id="PathCollection_10">
     <g>
      <use style="fill:#1f77b4;stroke:#1f77b4;" x="449.411765" xlink:href="#mdc2163bfd9" y="48.533438"/>
     </g>
    </g>
    <g id="text_40">
     <!-- std::sort -->
     <g transform="translate(467.411765 51.158438)scale(0.1 -0.1)">
      <use xlink:href="#DejaVuSans-115"/>
      <use x="52.099609" xlink:href="#DejaVuSans-116"/>
      <use x="91.308594" xlink:href="#DejaVuSans-100"/>
      <use x="154.785156" xlink:href="#DejaVuSans-58"/>
      <use x="188.476562" xlink:href="#DejaVuSans-58"/>
      <use x="222.167969" xlink:href="#DejaVuSans-115"/>
      <use x="274.267578" xlink:href="#DejaVuSans-111"/>
      <use x="335.449219" xlink:href="#DejaVuSans-114"/>
      <use x="376.5625" xlink:href="#DejaVuSans-116"/>
     </g>
    </g>
    <g id="PathCollection_11">
     <g>
      <use style="fill:#ff7f0e;stroke:#ff7f0e;" x="449.411765" xlink:href="#m58287cf920" y="63.211563"/>
     </g>
    </g>
    <g id="text_41">
     <!-- BitsetSort -->
     <g transform="translate(467.411765 65.836563)scale(0.1 -0.1)">
      <use xlink:href="#DejaVuSans-66"/>
      <use x="68.603516" xlink:href="#DejaVuSans-105"/>
      <use x="96.386719" xlink:href="#DejaVuSans-116"/>
      <use x="135.595703" xlink:href="#DejaVuSans-115"/>
      <use x="187.695312" xlink:href="#DejaVuSans-101"/>
      <use x="249.21875" xlink:href="#DejaVuSans-116"/>
      <use x="288.427734" xlink:href="#DejaVuSans-83"/>
      <use x="351.904297" xlink:href="#DejaVuSans-111"/>
      <use x="413.085938" xlink:href="#DejaVuSans-114"/>
      <use x="454.199219" xlink:href="#DejaVuSans-116"/>
     </g>
    </g>
    <g id="PathCollection_12">
     <g>
      <use style="fill:#2ca02c;stroke:#2ca02c;" x="449.411765" xlink:href="#m864a139d48" y="77.889688"/>
     </g>
    </g>
    <g id="text_42">
     <!-- PdqSort -->
     <g transform="translate(467.411765 80.514688)scale(0.1 -0.1)">
      <use xlink:href="#DejaVuSans-80"/>
      <use x="60.302734" xlink:href="#DejaVuSans-100"/>
      <use x="123.779297" xlink:href="#DejaVuSans-113"/>
      <use x="187.255859" xlink:href="#DejaVuSans-83"/>
      <use x="250.732422" xlink:href="#DejaVuSans-111"/>
      <use x="311.914062" xlink:href="#DejaVuSans-114"/>
      <use x="353.027344" xlink:href="#DejaVuSans-116"/>
     </g>
    </g>
   </g>
  </g>
  <g id="axes_3">
   <g id="patch_14">
    <path d="M 725.823529 256.32 
L 972 256.32 
L 972 34.56 
L 725.823529 34.56 
z
" style="fill:#ffffff;"/>
   </g>
   <g id="PathCollection_13">
    <g clip-path="url(#p68b38a9759)">
     <use style="fill:#1f77b4;stroke:#1f77b4;" x="737.013369" xlink:href="#mdc2163bfd9" y="246.24"/>
     <use style="fill:#1f77b4;stroke:#1f77b4;" x="761.879679" xlink:href="#mdc2163bfd9" y="237.587136"/>
     <use style="fill:#1f77b4;stroke:#1f77b4;" x="786.745989" xlink:href="#mdc2163bfd9" y="218.15173"/>
     <use style="fill:#1f77b4;stroke:#1f77b4;" x="811.612299" xlink:href="#mdc2163bfd9" y="198.004707"/>
     <use style="fill:#1f77b4;stroke:#1f77b4;" x="836.47861" xlink:href="#mdc2163bfd9" y="182.189755"/>
     <use style="fill:#1f77b4;stroke:#1f77b4;" x="861.34492" xlink:href="#mdc2163bfd9" y="162.286695"/>
     <use style="fill:#1f77b4;stroke:#1f77b4;" x="911.07754" xlink:href="#mdc2163bfd9" y="122.546596"/>
     <use style="fill:#1f77b4;stroke:#1f77b4;" x="960.81016" xlink:href="#mdc2163bfd9" y="44.64"/>
    </g>
   </g>
   <g id="PathCollection_14">
    <g clip-path="url(#p68b38a9759)">
     <use style="fill:#ff7f0e;stroke:#ff7f0e;" x="737.013369" xlink:href="#m58287cf920" y="245.584609"/>
     <use style="fill:#ff7f0e;stroke:#ff7f0e;" x="761.879679" xlink:href="#m58287cf920" y="237.022782"/>
     <use style="fill:#ff7f0e;stroke:#ff7f0e;" x="786.745989" xlink:href="#m58287cf920" y="223.265554"/>
     <use style="fill:#ff7f0e;stroke:#ff7f0e;" x="811.612299" xlink:href="#m58287cf920" y="206.029077"/>
     <use style="fill:#ff7f0e;stroke:#ff7f0e;" x="836.47861" xlink:href="#m58287cf920" y="197.810143"/>
     <use style="fill:#ff7f0e;stroke:#ff7f0e;" x="861.34492" xlink:href="#m58287cf920" y="187.354298"/>
     <use style="fill:#ff7f0e;stroke:#ff7f0e;" x="911.07754" xlink:href="#m58287cf920" y="165.173707"/>
     <use style="fill:#ff7f0e;stroke:#ff7f0e;" x="960.81016" xlink:href="#m58287cf920" y="101.502557"/>
    </g>
   </g>
   <g id="PathCollection_15">
    <g clip-path="url(#p68b38a9759)">
     <use style="fill:#2ca02c;stroke:#2ca02c;" x="737.013369" xlink:href="#m864a139d48" y="244.673324"/>
     <use style="fill:#2ca02c;stroke:#2ca02c;" x="761.879679" xlink:href="#m864a139d48" y="237.131987"/>
     <use style="fill:#2ca02c;stroke:#2ca02c;" x="786.745989" xlink:href="#m864a139d48" y="220.963013"/>
     <use style="fill:#2ca02c;stroke:#2ca02c;" x="811.612299" xlink:href="#m864a139d48" y="201.387956"/>
     <use style="fill:#2ca02c;stroke:#2ca02c;" x="836.47861" xlink:href="#m864a139d48" y="185.880035"/>
     <use style="fill:#2ca02c;stroke:#2ca02c;" x="861.34492" xlink:href="#m864a139d48" y="167.826931"/>
     <use style="fill:#2ca02c;stroke:#2ca02c;" x="911.07754" xlink:href="#m864a139d48" y="127.484108"/>
     <use style="fill:#2ca02c;stroke:#2ca02c;" x="960.81016" xlink:href="#m864a139d48" y="51.673838"/>
    </g>
   </g>
   <g id="matplotlib.axis_5">
    <g id="xtick_17">
     <g id="line2d_31">
      <g>
       <use style="stroke:#000000;stroke-width:0.8;" x="737.013369" xlink:href="#md69b674eda" y="256.32"/>
      </g>
     </g>
     <g id="text_43">
      <!-- $\mathdefault{2^{0}}$ -->
      <g transform="translate(731.413369 270.918437)scale(0.1 -0.1)">
       <use transform="translate(0 0.765625)" xlink:href="#DejaVuSans-50"/>
       <use transform="translate(64.580078 39.046875)scale(0.7)" xlink:href="#DejaVuSans-48"/>
      </g>
     </g>
    </g>
    <g id="xtick_18">
     <g id="line2d_32">
      <g>
       <use style="stroke:#000000;stroke-width:0.8;" x="761.879679" xlink:href="#md69b674eda" y="256.32"/>
      </g>
     </g>
     <g id="text_44">
      <!-- $\mathdefault{2^{2}}$ -->
      <g transform="translate(756.279679 270.918437)scale(0.1 -0.1)">
       <use transform="translate(0 0.765625)" xlink:href="#DejaVuSans-50"/>
       <use transform="translate(64.580078 39.046875)scale(0.7)" xlink:href="#DejaVuSans-50"/>
      </g>
     </g>
    </g>
    <g id="xtick_19">
     <g id="line2d_33">
      <g>
       <use style="stroke:#000000;stroke-width:0.8;" x="786.745989" xlink:href="#md69b674eda" y="256.32"/>
      </g>
     </g>
     <g id="text_45">
      <!-- $\mathdefault{2^{4}}$ -->
      <g transform="translate(781.145989 270.918437)scale(0.1 -0.1)">
       <use transform="translate(0 0.684375)" xlink:href="#DejaVuSans-50"/>
       <use transform="translate(64.580078 38.965625)scale(0.7)" xlink:href="#DejaVuSans-52"/>
      </g>
     </g>
    </g>
    <g id="xtick_20">
     <g id="line2d_34">
      <g>
       <use style="stroke:#000000;stroke-width:0.8;" x="811.612299" xlink:href="#md69b674eda" y="256.32"/>
      </g>
     </g>
     <g id="text_46">
      <!-- $\mathdefault{2^{6}}$ -->
      <g transform="translate(806.012299 270.918437)scale(0.1 -0.1)">
       <use transform="translate(0 0.765625)" xlink:href="#DejaVuSans-50"/>
       <use transform="translate(64.580078 39.046875)scale(0.7)" xlink:href="#DejaVuSans-54"/>
      </g>
     </g>
    </g>
    <g id="xtick_21">
     <g id="line2d_35">
      <g>
       <use style="stroke:#000000;stroke-width:0.8;" x="836.47861" xlink:href="#md69b674eda" y="256.32"/>
      </g>
     </g>
     <g id="text_47">
      <!-- $\mathdefault{2^{8}}$ -->
      <g transform="translate(830.87861 270.918437)scale(0.1 -0.1)">
       <use transform="translate(0 0.765625)" xlink:href="#DejaVuSans-50"/>
       <use transform="translate(64.580078 39.046875)scale(0.7)" xlink:href="#DejaVuSans-56"/>
      </g>
     </g>
    </g>
    <g id="xtick_22">
     <g id="line2d_36">
      <g>
       <use style="stroke:#000000;stroke-width:0.8;" x="861.34492" xlink:href="#md69b674eda" y="256.32"/>
      </g>
     </g>
     <g id="text_48">
      <!-- $\mathdefault{2^{10}}$ -->
      <g transform="translate(853.49492 270.918437)scale(0.1 -0.1)">
       <use transform="translate(0 0.765625)" xlink:href="#DejaVuSans-50"/>
       <use transform="translate(64.580078 39.046875)scale(0.7)" xlink:href="#DejaVuSans-49"/>
       <use transform="translate(109.116211 39.046875)scale(0.7)" xlink:href="#DejaVuSans-48"/>
      </g>
     </g>
    </g>
    <g id="xtick_23">
     <g id="line2d_37">
      <g>
       <use style="stroke:#000000;stroke-width:0.8;" x="911.07754" xlink:href="#md69b674eda" y="256.32"/>
      </g>
     </g>
     <g id="text_49">
      <!-- $\mathdefault{2^{14}}$ -->
      <g transform="translate(903.22754 270.918437)scale(0.1 -0.1)">
       <use transform="translate(0 0.684375)" xlink:href="#DejaVuSans-50"/>
       <use transform="translate(64.580078 38.965625)scale(0.7)" xlink:href="#DejaVuSans-49"/>
       <use transform="translate(109.116211 38.965625)scale(0.7)" xlink:href="#DejaVuSans-52"/>
      </g>
     </g>
    </g>
    <g id="xtick_24">
     <g id="line2d_38">
      <g>
       <use style="stroke:#000000;stroke-width:0.8;" x="960.81016" xlink:href="#md69b674eda" y="256.32"/>
      </g>
     </g>
     <g id="text_50">
      <!-- $\mathdefault{2^{18}}$ -->
      <g transform="translate(952.96016 270.918437)scale(0.1 -0.1)">
       <use transform="translate(0 0.765625)" xlink:href="#DejaVuSans-50"/>
       <use transform="translate(64.580078 39.046875)scale(0.7)" xlink:href="#DejaVuSans-49"/>
       <use transform="translate(109.116211 39.046875)scale(0.7)" xlink:href="#DejaVuSans-56"/>
      </g>
     </g>
    </g>
    <g id="text_51">
     <!-- Number of elements -->
     <g transform="translate(797.605515 284.596563)scale(0.1 -0.1)">
      <use xlink:href="#DejaVuSans-78"/>
      <use x="74.804688" xlink:href="#DejaVuSans-117"/>
      <use x="138.183594" xlink:href="#DejaVuSans-109"/>
      <use x="235.595703" xlink:href="#DejaVuSans-98"/>
      <use x="299.072266" xlink:href="#DejaVuSans-101"/>
      <use x="360.595703" xlink:href="#DejaVuSans-114"/>
      <use x="401.708984" xlink:href="#DejaVuSans-32"/>
      <use x="433.496094" xlink:href="#DejaVuSans-111"/>
      <use x="494.677734" xlink:href="#DejaVuSans-102"/>
      <use x="529.882812" xlink:href="#DejaVuSans-32"/>
      <use x="561.669922" xlink:href="#DejaVuSans-101"/>
      <use x="623.193359" xlink:href="#DejaVuSans-108"/>
      <use x="650.976562" xlink:href="#DejaVuSans-101"/>
      <use x="712.5" xlink:href="#DejaVuSans-109"/>
      <use x="809.912109" xlink:href="#DejaVuSans-101"/>
      <use x="871.435547" xlink:href="#DejaVuSans-110"/>
      <use x="934.814453" xlink:href="#DejaVuSans-116"/>
      <use x="974.023438" xlink:href="#DejaVuSans-115"/>
     </g>
    </g>
   </g>
   <g id="matplotlib.axis_6">
    <g id="ytick_15">
     <g id="line2d_39">
      <g>
       <use style="stroke:#000000;stroke-width:0.8;" x="725.823529" xlink:href="#m2b18252a80" y="248.733937"/>
      </g>
     </g>
     <g id="text_52">
      <!-- 0 -->
      <g transform="translate(712.461029 252.533156)scale(0.1 -0.1)">
       <use xlink:href="#DejaVuSans-48"/>
      </g>
     </g>
    </g>
    <g id="ytick_16">
     <g id="line2d_40">
      <g>
       <use style="stroke:#000000;stroke-width:0.8;" x="725.823529" xlink:href="#m2b18252a80" y="209.898698"/>
      </g>
     </g>
     <g id="text_53">
      <!-- 50 -->
      <g transform="translate(706.098529 213.697917)scale(0.1 -0.1)">
       <use xlink:href="#DejaVuSans-53"/>
       <use x="63.623047" xlink:href="#DejaVuSans-48"/>
      </g>
     </g>
    </g>
    <g id="ytick_17">
     <g id="line2d_41">
      <g>
       <use style="stroke:#000000;stroke-width:0.8;" x="725.823529" xlink:href="#m2b18252a80" y="171.063459"/>
      </g>
     </g>
     <g id="text_54">
      <!-- 100 -->
      <g transform="translate(699.736029 174.862678)scale(0.1 -0.1)">
       <use xlink:href="#DejaVuSans-49"/>
       <use x="63.623047" xlink:href="#DejaVuSans-48"/>
       <use x="127.246094" xlink:href="#DejaVuSans-48"/>
      </g>
     </g>
    </g>
    <g id="ytick_18">
     <g id="line2d_42">
      <g>
       <use style="stroke:#000000;stroke-width:0.8;" x="725.823529" xlink:href="#m2b18252a80" y="132.228221"/>
      </g>
     </g>
     <g id="text_55">
      <!-- 150 -->
      <g transform="translate(699.736029 136.027439)scale(0.1 -0.1)">
       <use xlink:href="#DejaVuSans-49"/>
       <use x="63.623047" xlink:href="#DejaVuSans-53"/>
       <use x="127.246094" xlink:href="#DejaVuSans-48"/>
      </g>
     </g>
    </g>
    <g id="ytick_19">
     <g id="line2d_43">
      <g>
       <use style="stroke:#000000;stroke-width:0.8;" x="725.823529" xlink:href="#m2b18252a80" y="93.392982"/>
      </g>
     </g>
     <g id="text_56">
      <!-- 200 -->
      <g transform="translate(699.736029 97.192201)scale(0.1 -0.1)">
       <use xlink:href="#DejaVuSans-50"/>
       <use x="63.623047" xlink:href="#DejaVuSans-48"/>
       <use x="127.246094" xlink:href="#DejaVuSans-48"/>
      </g>
     </g>
    </g>
    <g id="ytick_20">
     <g id="line2d_44">
      <g>
       <use style="stroke:#000000;stroke-width:0.8;" x="725.823529" xlink:href="#m2b18252a80" y="54.557743"/>
      </g>
     </g>
     <g id="text_57">
      <!-- 250 -->
      <g transform="translate(699.736029 58.356962)scale(0.1 -0.1)">
       <use xlink:href="#DejaVuSans-50"/>
       <use x="63.623047" xlink:href="#DejaVuSans-53"/>
       <use x="127.246094" xlink:href="#DejaVuSans-48"/>
      </g>
     </g>
    </g>
    <g id="text_58">
     <!-- Nanosecond per element -->
     <g transform="translate(693.656342 208.407969)rotate(-90)scale(0.1 -0.1)">
      <use xlink:href="#DejaVuSans-78"/>
      <use x="74.804688" xlink:href="#DejaVuSans-97"/>
      <use x="136.083984" xlink:href="#DejaVuSans-110"/>
      <use x="199.462891" xlink:href="#DejaVuSans-111"/>
      <use x="260.644531" xlink:href="#DejaVuSans-115"/>
      <use x="312.744141" xlink:href="#DejaVuSans-101"/>
      <use x="374.267578" xlink:href="#DejaVuSans-99"/>
      <use x="429.248047" xlink:href="#DejaVuSans-111"/>
      <use x="490.429688" xlink:href="#DejaVuSans-110"/>
      <use x="553.808594" xlink:href="#DejaVuSans-100"/>
      <use x="617.285156" xlink:href="#DejaVuSans-32"/>
      <use x="649.072266" xlink:href="#DejaVuSans-112"/>
      <use x="712.548828" xlink:href="#DejaVuSans-101"/>
      <use x="774.072266" xlink:href="#DejaVuSans-114"/>
      <use x="815.185547" xlink:href="#DejaVuSans-32"/>
      <use x="846.972656" xlink:href="#DejaVuSans-101"/>
      <use x="908.496094" xlink:href="#DejaVuSans-108"/>
      <use x="936.279297" xlink:href="#DejaVuSans-101"/>
      <use x="997.802734" xlink:href="#DejaVuSans-109"/>
      <use x="1095.214844" xlink:href="#DejaVuSans-101"/>
      <use x="1156.738281" xlink:href="#DejaVuSans-110"/>
      <use x="1220.117188" xlink:href="#DejaVuSans-116"/>
     </g>
    </g>
   </g>
   <g id="patch_15">
    <path d="M 725.823529 256.32 
L 725.823529 34.56 
" style="fill:none;stroke:#000000;stroke-linecap:square;stroke-linejoin:miter;stroke-width:0.8;"/>
   </g>
   <g id="patch_16">
    <path d="M 972 256.32 
L 972 34.56 
" style="fill:none;stroke:#000000;stroke-linecap:square;stroke-linejoin:miter;stroke-width:0.8;"/>
   </g>
   <g id="patch_17">
    <path d="M 725.823529 256.32 
L 972 256.32 
" style="fill:none;stroke:#000000;stroke-linecap:square;stroke-linejoin:miter;stroke-width:0.8;"/>
   </g>
   <g id="patch_18">
    <path d="M 725.823529 34.56 
L 972 34.56 
" style="fill:none;stroke:#000000;stroke-linecap:square;stroke-linejoin:miter;stroke-width:0.8;"/>
   </g>
   <g id="text_59">
    <!-- Random string -->
    <g transform="translate(804.943952 28.56)scale(0.12 -0.12)">
     <defs>
      <path d="M 45.40625 27.984375 
Q 45.40625 37.75 41.375 43.109375 
Q 37.359375 48.484375 30.078125 48.484375 
Q 22.859375 48.484375 18.828125 43.109375 
Q 14.796875 37.75 14.796875 27.984375 
Q 14.796875 18.265625 18.828125 12.890625 
Q 22.859375 7.515625 30.078125 7.515625 
Q 37.359375 7.515625 41.375 12.890625 
Q 45.40625 18.265625 45.40625 27.984375 
z
M 54.390625 6.78125 
Q 54.390625 -7.171875 48.1875 -13.984375 
Q 42 -20.796875 29.203125 -20.796875 
Q 24.46875 -20.796875 20.265625 -20.09375 
Q 16.0625 -19.390625 12.109375 -17.921875 
L 12.109375 -9.1875 
Q 16.0625 -11.328125 19.921875 -12.34375 
Q 23.78125 -13.375 27.78125 -13.375 
Q 36.625 -13.375 41.015625 -8.765625 
Q 45.40625 -4.15625 45.40625 5.171875 
L 45.40625 9.625 
Q 42.625 4.78125 38.28125 2.390625 
Q 33.9375 0 27.875 0 
Q 17.828125 0 11.671875 7.65625 
Q 5.515625 15.328125 5.515625 27.984375 
Q 5.515625 40.671875 11.671875 48.328125 
Q 17.828125 56 27.875 56 
Q 33.9375 56 38.28125 53.609375 
Q 42.625 51.21875 45.40625 46.390625 
L 45.40625 54.6875 
L 54.390625 54.6875 
z
" id="DejaVuSans-103"/>
     </defs>
     <use xlink:href="#DejaVuSans-82"/>
     <use x="67.232422" xlink:href="#DejaVuSans-97"/>
     <use x="128.511719" xlink:href="#DejaVuSans-110"/>
     <use x="191.890625" xlink:href="#DejaVuSans-100"/>
     <use x="255.367188" xlink:href="#DejaVuSans-111"/>
     <use x="316.548828" xlink:href="#DejaVuSans-109"/>
     <use x="413.960938" xlink:href="#DejaVuSans-32"/>
     <use x="445.748047" xlink:href="#DejaVuSans-115"/>
     <use x="497.847656" xlink:href="#DejaVuSans-116"/>
     <use x="537.056641" xlink:href="#DejaVuSans-114"/>
     <use x="578.169922" xlink:href="#DejaVuSans-105"/>
     <use x="605.953125" xlink:href="#DejaVuSans-110"/>
     <use x="669.332031" xlink:href="#DejaVuSans-103"/>
    </g>
   </g>
   <g id="legend_3">
    <g id="patch_19">
     <path d="M 732.823529 86.594375 
L 814.164154 86.594375 
Q 816.164154 86.594375 816.164154 84.594375 
L 816.164154 41.56 
Q 816.164154 39.56 814.164154 39.56 
L 732.823529 39.56 
Q 730.823529 39.56 730.823529 41.56 
L 730.823529 84.594375 
Q 730.823529 86.594375 732.823529 86.594375 
z
" style="fill:#ffffff;opacity:0.8;stroke:#cccccc;stroke-linejoin:miter;"/>
    </g>
    <g id="PathCollection_16">
     <g>
      <use style="fill:#1f77b4;stroke:#1f77b4;" x="744.823529" xlink:href="#mdc2163bfd9" y="48.533438"/>
     </g>
    </g>
    <g id="text_60">
     <!-- std::sort -->
     <g transform="translate(762.823529 51.158438)scale(0.1 -0.1)">
      <use xlink:href="#DejaVuSans-115"/>
      <use x="52.099609" xlink:href="#DejaVuSans-116"/>
      <use x="91.308594" xlink:href="#DejaVuSans-100"/>
      <use x="154.785156" xlink:href="#DejaVuSans-58"/>
      <use x="188.476562" xlink:href="#DejaVuSans-58"/>
      <use x="222.167969" xlink:href="#DejaVuSans-115"/>
      <use x="274.267578" xlink:href="#DejaVuSans-111"/>
      <use x="335.449219" xlink:href="#DejaVuSans-114"/>
      <use x="376.5625" xlink:href="#DejaVuSans-116"/>
     </g>
    </g>
    <g id="PathCollection_17">
     <g>
      <use style="fill:#ff7f0e;stroke:#ff7f0e;" x="744.823529" xlink:href="#m58287cf920" y="63.211563"/>
     </g>
    </g>
    <g id="text_61">
     <!-- BitsetSort -->
     <g transform="translate(762.823529 65.836563)scale(0.1 -0.1)">
      <use xlink:href="#DejaVuSans-66"/>
      <use x="68.603516" xlink:href="#DejaVuSans-105"/>
      <use x="96.386719" xlink:href="#DejaVuSans-116"/>
      <use x="135.595703" xlink:href="#DejaVuSans-115"/>
      <use x="187.695312" xlink:href="#DejaVuSans-101"/>
      <use x="249.21875" xlink:href="#DejaVuSans-116"/>
      <use x="288.427734" xlink:href="#DejaVuSans-83"/>
      <use x="351.904297" xlink:href="#DejaVuSans-111"/>
      <use x="413.085938" xlink:href="#DejaVuSans-114"/>
      <use x="454.199219" xlink:href="#DejaVuSans-116"/>
     </g>
    </g>
    <g id="PathCollection_18">
     <g>
      <use style="fill:#2ca02c;stroke:#2ca02c;" x="744.823529" xlink:href="#m864a139d48" y="77.889688"/>
     </g>
    </g>
    <g id="text_62">
     <!-- PdqSort -->
     <g transform="translate(762.823529 80.514688)scale(0.1 -0.1)">
      <use xlink:href="#DejaVuSans-80"/>
      <use x="60.302734" xlink:href="#DejaVuSans-100"/>
      <use x="123.779297" xlink:href="#DejaVuSans-113"/>
      <use x="187.255859" xlink:href="#DejaVuSans-83"/>
      <use x="250.732422" xlink:href="#DejaVuSans-111"/>
      <use x="311.914062" xlink:href="#DejaVuSans-114"/>
      <use x="353.027344" xlink:href="#DejaVuSans-116"/>
     </g>
    </g>
   </g>
  </g>
 </g>
 <defs>
  <clipPath id="p5b12290e67">
   <rect height="221.76" width="246.176471" x="135" y="34.56"/>
  </clipPath>
  <clipPath id="p3a3eb32f17">
   <rect height="221.76" width="246.176471" x="430.411765" y="34.56"/>
  </clipPath>
  <clipPath id="p68b38a9759">
   <rect height="221.76" width="246.176471" x="725.823529" y="34.56"/>
  </clipPath>
 </defs>
</svg>
